{
    "asset" : {
        "generator" : "Khronos glTF Blender I/O v3.2.40",
        "version" : "2.0"
    },
    "scene" : 0,
    "scenes" : [
        {
            "name" : "Scene",
            "nodes" : [
                0
            ]
        }
    ],
    "nodes" : [
        {
            "mesh" : 0,
            "name" : "Text.003",
            "translation" : [
                -0.012494598515331745,
                0.8170340061187744,
                0.011417627334594727
            ]
        }
    ],
    "materials" : [
        {
            "doubleSided" : true,
            "name" : "Brown.007",
            "pbrMetallicRoughness" : {
                "baseColorFactor" : [
                    0.40724021196365356,
                    0.19461765885353088,
                    0.10461653023958206,
                    1
                ],
                "metallicFactor" : 0,
                "roughnessFactor" : 0.5
            }
        }
    ],
    "meshes" : [
        {
            "name" : "Text.047",
            "primitives" : [
                {
                    "attributes" : {
                        "POSITION" : 0,
                        "NORMAL" : 1,
                        "TEXCOORD_0" : 2
                    },
                    "indices" : 3,
                    "material" : 0
                }
            ]
        }
    ],
    "accessors" : [
        {
            "bufferView" : 0,
            "componentType" : 5126,
            "count" : 1444,
            "max" : [
                0.5051404237747192,
                0.7379578351974487,
                0.05710136890411377
            ],
            "min" : [
                -0.4998243749141693,
                -0.819061279296875,
                -0.05719277262687683
            ],
            "type" : "VEC3"
        },
        {
            "bufferView" : 1,
            "componentType" : 5126,
            "count" : 1444,
            "type" : "VEC3"
        },
        {
            "bufferView" : 2,
            "componentType" : 5126,
            "count" : 1444,
            "type" : "VEC2"
        },
        {
            "bufferView" : 3,
            "componentType" : 5123,
            "count" : 4608,
            "type" : "SCALAR"
        }
    ],
    "bufferViews" : [
        {
            "buffer" : 0,
            "byteLength" : 17328,
            "byteOffset" : 0
        },
        {
            "buffer" : 0,
            "byteLength" : 17328,
            "byteOffset" : 17328
        },
        {
            "buffer" : 0,
            "byteLength" : 11552,
            "byteOffset" : 34656
        },
        {
            "buffer" : 0,
            "byteLength" : 9216,
            "byteOffset" : 46208
        }
    ],
    "buffers" : [
        {
            "byteLength" : 55424,
            "uri" : "data:application/octet-stream;base64,"
        }
    ]
}
