{
    "asset" : {
        "generator" : "Khronos glTF Blender I/O v3.2.40",
        "version" : "2.0"
    },
    "scene" : 0,
    "scenes" : [
        {
            "name" : "Scene",
            "nodes" : [
                0
            ]
        }
    ],
    "nodes" : [
        {
            "mesh" : 0,
            "name" : "Text",
            "translation" : [
                -0.011493693105876446,
                0.8215184211730957,
                0.016154557466506958
            ]
        }
    ],
    "materials" : [
        {
            "doubleSided" : true,
            "name" : "Orange.003",
            "pbrMetallicRoughness" : {
                "baseColorFactor" : [
                    0.991101861000061,
                    0.3762618601322174,
                    0,
                    1
                ],
                "metallicFactor" : 0,
                "roughnessFactor" : 0.5
            }
        }
    ],
    "meshes" : [
        {
            "name" : "Text.044",
            "primitives" : [
                {
                    "attributes" : {
                        "POSITION" : 0,
                        "NORMAL" : 1,
                        "TEXCOORD_0" : 2
                    },
                    "indices" : 3,
                    "material" : 0
                }
            ]
        }
    ],
    "accessors" : [
        {
            "bufferView" : 0,
            "componentType" : 5126,
            "count" : 3090,
            "max" : [
                0.5013208985328674,
                0.7472035884857178,
                0.05709165334701538
            ],
            "min" : [
                -0.5036438703536987,
                -0.809815526008606,
                -0.057202503085136414
            ],
            "type" : "VEC3"
        },
        {
            "bufferView" : 1,
            "componentType" : 5126,
            "count" : 3090,
            "type" : "VEC3"
        },
        {
            "bufferView" : 2,
            "componentType" : 5126,
            "count" : 3090,
            "type" : "VEC2"
        },
        {
            "bufferView" : 3,
            "componentType" : 5123,
            "count" : 9540,
            "type" : "SCALAR"
        }
    ],
    "bufferViews" : [
        {
            "buffer" : 0,
            "byteLength" : 37080,
            "byteOffset" : 0
        },
        {
            "buffer" : 0,
            "byteLength" : 37080,
            "byteOffset" : 37080
        },
        {
            "buffer" : 0,
            "byteLength" : 24720,
            "byteOffset" : 74160
        },
        {
            "buffer" : 0,
            "byteLength" : 19080,
            "byteOffset" : 98880
        }
    ],
    "buffers" : [
        {
            "byteLength" : 117960,
            "uri" : "data:application/octet-stream;base64,"
        }
    ]
}
