{
    "asset" : {
        "generator" : "Khronos glTF Blender I/O v3.2.40",
        "version" : "2.0"
    },
    "scene" : 0,
    "scenes" : [
        {
            "name" : "Scene",
            "nodes" : [
                0
            ]
        }
    ],
    "nodes" : [
        {
            "mesh" : 0,
            "name" : "Text.002",
            "translation" : [
                -9.053212124854326e-05,
                0.8397814035415649,
                -0.00901782512664795
            ]
        }
    ],
    "materials" : [
        {
            "doubleSided" : true,
            "name" : "Pink.008",
            "pbrMetallicRoughness" : {
                "baseColorFactor" : [
                    1,
                    0.31398826837539673,
                    0.40724027156829834,
                    1
                ],
                "metallicFactor" : 0,
                "roughnessFactor" : 0.5
            }
        }
    ],
    "meshes" : [
        {
            "name" : "Text.046",
            "primitives" : [
                {
                    "attributes" : {
                        "POSITION" : 0,
                        "NORMAL" : 1,
                        "TEXCOORD_0" : 2
                    },
                    "indices" : 3,
                    "material" : 0
                }
            ]
        }
    ],
    "accessors" : [
        {
            "bufferView" : 0,
            "componentType" : 5126,
            "count" : 1561,
            "max" : [
                0.503331184387207,
                0.7259986400604248,
                0.0571141242980957
            ],
            "min" : [
                -0.5016335844993591,
                -0.8310205340385437,
                -0.0571800172328949
            ],
            "type" : "VEC3"
        },
        {
            "bufferView" : 1,
            "componentType" : 5126,
            "count" : 1561,
            "type" : "VEC3"
        },
        {
            "bufferView" : 2,
            "componentType" : 5126,
            "count" : 1561,
            "type" : "VEC2"
        },
        {
            "bufferView" : 3,
            "componentType" : 5123,
            "count" : 2748,
            "type" : "SCALAR"
        }
    ],
    "bufferViews" : [
        {
            "buffer" : 0,
            "byteLength" : 18732,
            "byteOffset" : 0
        },
        {
            "buffer" : 0,
            "byteLength" : 18732,
            "byteOffset" : 18732
        },
        {
            "buffer" : 0,
            "byteLength" : 12488,
            "byteOffset" : 37464
        },
        {
            "buffer" : 0,
            "byteLength" : 5496,
            "byteOffset" : 49952
        }
    ],
    "buffers" : [
        {
            "byteLength" : 55448,
            "uri" : "data:application/octet-stream;base64,"
        }
    ]
}
