{
    "asset" : {
        "generator" : "Khronos glTF Blender I/O v3.2.40",
        "version" : "2.0"
    },
    "scene" : 0,
    "scenes" : [
        {
            "name" : "Scene",
            "nodes" : [
                0
            ]
        }
    ],
    "nodes" : [
        {
            "mesh" : 0,
            "name" : "Text.006",
            "translation" : [
                -0.012474659830331802,
                0.8367710113525391,
                0.025492653250694275
            ]
        }
    ],
    "materials" : [
        {
            "doubleSided" : true,
            "name" : "Blue.005",
            "pbrMetallicRoughness" : {
                "baseColorFactor" : [
                    0.024157002568244934,
                    0.2917703688144684,
                    0.6444796323776245,
                    1
                ],
                "metallicFactor" : 0,
                "roughnessFactor" : 0.5
            }
        }
    ],
    "meshes" : [
        {
            "name" : "Text.050",
            "primitives" : [
                {
                    "attributes" : {
                        "POSITION" : 0,
                        "NORMAL" : 1,
                        "TEXCOORD_0" : 2
                    },
                    "indices" : 3,
                    "material" : 0
                }
            ]
        }
    ],
    "accessors" : [
        {
            "bufferView" : 0,
            "componentType" : 5126,
            "count" : 1194,
            "max" : [
                0.5044545531272888,
                0.7295072078704834,
                0.05711139738559723
            ],
            "min" : [
                -0.5005103349685669,
                -0.8275117874145508,
                -0.05718274414539337
            ],
            "type" : "VEC3"
        },
        {
            "bufferView" : 1,
            "componentType" : 5126,
            "count" : 1194,
            "type" : "VEC3"
        },
        {
            "bufferView" : 2,
            "componentType" : 5126,
            "count" : 1194,
            "type" : "VEC2"
        },
        {
            "bufferView" : 3,
            "componentType" : 5123,
            "count" : 3876,
            "type" : "SCALAR"
        }
    ],
    "bufferViews" : [
        {
            "buffer" : 0,
            "byteLength" : 14328,
            "byteOffset" : 0
        },
        {
            "buffer" : 0,
            "byteLength" : 14328,
            "byteOffset" : 14328
        },
        {
            "buffer" : 0,
            "byteLength" : 9552,
            "byteOffset" : 28656
        },
        {
            "buffer" : 0,
            "byteLength" : 7752,
            "byteOffset" : 38208
        }
    ],
    "buffers" : [
        {
            "byteLength" : 45960,
            "uri" : "data:application/octet-stream;base64,"
        }
    ]
}
