{
    "asset" : {
        "generator" : "Khronos glTF Blender I/O v3.2.40",
        "version" : "2.0"
    },
    "scene" : 0,
    "scenes" : [
        {
            "name" : "Scene",
            "nodes" : [
                0
            ]
        }
    ],
    "nodes" : [
        {
            "mesh" : 0,
            "name" : "Text.007",
            "translation" : [
                -0.013699977658689022,
                0.8329653143882751,
                -0.02850949764251709
            ]
        }
    ],
    "materials" : [
        {
            "doubleSided" : true,
            "name" : "Green.005",
            "pbrMetallicRoughness" : {
                "baseColorFactor" : [
                    0.049706216901540756,
                    0.4232674539089203,
                    0.059511348605155945,
                    1
                ],
                "metallicFactor" : 0,
                "roughnessFactor" : 0.5
            }
        }
    ],
    "meshes" : [
        {
            "name" : "Text.051",
            "primitives" : [
                {
                    "attributes" : {
                        "POSITION" : 0,
                        "NORMAL" : 1,
                        "TEXCOORD_0" : 2
                    },
                    "indices" : 3,
                    "material" : 0
                }
            ]
        }
    ],
    "accessors" : [
        {
            "bufferView" : 0,
            "componentType" : 5126,
            "count" : 1782,
            "max" : [
                0.5032134652137756,
                0.7372357249259949,
                0.05710300803184509
            ],
            "min" : [
                -0.5017512440681458,
                -0.8197832703590393,
                -0.05719113349914551
            ],
            "type" : "VEC3"
        },
        {
            "bufferView" : 1,
            "componentType" : 5126,
            "count" : 1782,
            "type" : "VEC3"
        },
        {
            "bufferView" : 2,
            "componentType" : 5126,
            "count" : 1782,
            "type" : "VEC2"
        },
        {
            "bufferView" : 3,
            "componentType" : 5123,
            "count" : 5616,
            "type" : "SCALAR"
        }
    ],
    "bufferViews" : [
        {
            "buffer" : 0,
            "byteLength" : 21384,
            "byteOffset" : 0
        },
        {
            "buffer" : 0,
            "byteLength" : 21384,
            "byteOffset" : 21384
        },
        {
            "buffer" : 0,
            "byteLength" : 14256,
            "byteOffset" : 42768
        },
        {
            "buffer" : 0,
            "byteLength" : 11232,
            "byteOffset" : 57024
        }
    ],
    "buffers" : [
        {
            "byteLength" : 68256,
            "uri" : "data:application/octet-stream;base64,"
        }
    ]
}
