{
    "asset" : {
        "generator" : "Khronos glTF Blender I/O v3.2.40",
        "version" : "2.0"
    },
    "scene" : 0,
    "scenes" : [
        {
            "name" : "Scene",
            "nodes" : [
                0
            ]
        }
    ],
    "nodes" : [
        {
            "mesh" : 0,
            "name" : "Text.001",
            "translation" : [
                0.007177508436143398,
                0.8228291273117065,
                0.20432846248149872
            ]
        }
    ],
    "materials" : [
        {
            "doubleSided" : true,
            "name" : "Purple.004",
            "pbrMetallicRoughness" : {
                "baseColorFactor" : [
                    0.3049871623516083,
                    0.03189581632614136,
                    0.38132598996162415,
                    1
                ],
                "metallicFactor" : 0,
                "roughnessFactor" : 0.5
            }
        }
    ],
    "meshes" : [
        {
            "name" : "Text.045",
            "primitives" : [
                {
                    "attributes" : {
                        "POSITION" : 0,
                        "NORMAL" : 1,
                        "TEXCOORD_0" : 2
                    },
                    "indices" : 3,
                    "material" : 0
                }
            ]
        }
    ],
    "accessors" : [
        {
            "bufferView" : 0,
            "componentType" : 5126,
            "count" : 1530,
            "max" : [
                0.5039157271385193,
                0.739027738571167,
                0.05710016191005707
            ],
            "min" : [
                -0.5010490417480469,
                -0.8179913759231567,
                -0.05719397962093353
            ],
            "type" : "VEC3"
        },
        {
            "bufferView" : 1,
            "componentType" : 5126,
            "count" : 1530,
            "type" : "VEC3"
        },
        {
            "bufferView" : 2,
            "componentType" : 5126,
            "count" : 1530,
            "type" : "VEC2"
        },
        {
            "bufferView" : 3,
            "componentType" : 5123,
            "count" : 4848,
            "type" : "SCALAR"
        }
    ],
    "bufferViews" : [
        {
            "buffer" : 0,
            "byteLength" : 18360,
            "byteOffset" : 0
        },
        {
            "buffer" : 0,
            "byteLength" : 18360,
            "byteOffset" : 18360
        },
        {
            "buffer" : 0,
            "byteLength" : 12240,
            "byteOffset" : 36720
        },
        {
            "buffer" : 0,
            "byteLength" : 9696,
            "byteOffset" : 48960
        }
    ],
    "buffers" : [
        {
            "byteLength" : 58656,
            "uri" : "data:application/octet-stream;base64,"
        }
    ]
}
