{
    "asset" : {
        "generator" : "Khronos glTF Blender I/O v3.2.40",
        "version" : "2.0"
    },
    "scene" : 0,
    "scenes" : [
        {
            "name" : "Scene",
            "nodes" : [
                0
            ]
        }
    ],
    "nodes" : [
        {
            "mesh" : 0,
            "name" : "Text.005",
            "translation" : [
                0.014210792258381844,
                0.8263756036758423,
                0.018329963088035583
            ]
        }
    ],
    "materials" : [
        {
            "doubleSided" : true,
            "name" : "Yellow.006",
            "pbrMetallicRoughness" : {
                "baseColorFactor" : [
                    1,
                    0.7304604649543762,
                    0,
                    1
                ],
                "metallicFactor" : 0,
                "roughnessFactor" : 0.5
            }
        }
    ],
    "meshes" : [
        {
            "name" : "Text.049",
            "primitives" : [
                {
                    "attributes" : {
                        "POSITION" : 0,
                        "NORMAL" : 1,
                        "TEXCOORD_0" : 2
                    },
                    "indices" : 3,
                    "material" : 0
                }
            ]
        }
    ],
    "accessors" : [
        {
            "bufferView" : 0,
            "componentType" : 5126,
            "count" : 1036,
            "max" : [
                0.5031134486198425,
                0.7389218807220459,
                0.05710060894489288
            ],
            "min" : [
                -0.5018513798713684,
                -0.8180971741676331,
                -0.05719353258609772
            ],
            "type" : "VEC3"
        },
        {
            "bufferView" : 1,
            "componentType" : 5126,
            "count" : 1036,
            "type" : "VEC3"
        },
        {
            "bufferView" : 2,
            "componentType" : 5126,
            "count" : 1036,
            "type" : "VEC2"
        },
        {
            "bufferView" : 3,
            "componentType" : 5123,
            "count" : 3360,
            "type" : "SCALAR"
        }
    ],
    "bufferViews" : [
        {
            "buffer" : 0,
            "byteLength" : 12432,
            "byteOffset" : 0
        },
        {
            "buffer" : 0,
            "byteLength" : 12432,
            "byteOffset" : 12432
        },
        {
            "buffer" : 0,
            "byteLength" : 8288,
            "byteOffset" : 24864
        },
        {
            "buffer" : 0,
            "byteLength" : 6720,
            "byteOffset" : 33152
        }
    ],
    "buffers" : [
        {
            "byteLength" : 39872,
            "uri" : "data:application/octet-stream;base64,"
        }
    ]
}
