{
    "asset" : {
        "generator" : "Khronos glTF Blender I/O v3.2.40",
        "version" : "2.0"
    },
    "scene" : 0,
    "scenes" : [
        {
            "name" : "Scene",
            "nodes" : [
                0
            ]
        }
    ],
    "nodes" : [
        {
            "mesh" : 0,
            "name" : "Numbers.010",
            "translation" : [
                0.0003733346238732338,
                0.0026520341634750366,
                0.004272870719432831
            ]
        }
    ],
    "materials" : [
        {
            "doubleSided" : true,
            "name" : "Pink.007",
            "pbrMetallicRoughness" : {
                "baseColorFactor" : [
                    1,
                    0.31398826837539673,
                    0.40724027156829834,
                    1
                ],
                "metallicFactor" : 0,
                "roughnessFactor" : 0.5
            }
        }
    ],
    "meshes" : [
        {
            "name" : "Text.042",
            "primitives" : [
                {
                    "attributes" : {
                        "POSITION" : 0,
                        "NORMAL" : 1,
                        "TEXCOORD_0" : 2
                    },
                    "indices" : 3,
                    "material" : 0
                }
            ]
        }
    ],
    "accessors" : [
        {
            "bufferView" : 0,
            "componentType" : 5126,
            "count" : 1288,
            "max" : [
                0.5002948045730591,
                0.5943663120269775,
                0.05621453374624252
            ],
            "min" : [
                -0.5046700239181519,
                -0.6073599457740784,
                -0.058079592883586884
            ],
            "type" : "VEC3"
        },
        {
            "bufferView" : 1,
            "componentType" : 5126,
            "count" : 1288,
            "type" : "VEC3"
        },
        {
            "bufferView" : 2,
            "componentType" : 5126,
            "count" : 1288,
            "type" : "VEC2"
        },
        {
            "bufferView" : 3,
            "componentType" : 5123,
            "count" : 4092,
            "type" : "SCALAR"
        }
    ],
    "bufferViews" : [
        {
            "buffer" : 0,
            "byteLength" : 15456,
            "byteOffset" : 0
        },
        {
            "buffer" : 0,
            "byteLength" : 15456,
            "byteOffset" : 15456
        },
        {
            "buffer" : 0,
            "byteLength" : 10304,
            "byteOffset" : 30912
        },
        {
            "buffer" : 0,
            "byteLength" : 8184,
            "byteOffset" : 41216
        }
    ],
    "buffers" : [
        {
            "byteLength" : 49400,
            "uri" : "data:application/octet-stream;base64,"
        }
    ]
}
