{
    "asset" : {
        "generator" : "Khronos glTF Blender I/O v3.2.40",
        "version" : "2.0"
    },
    "scene" : 0,
    "scenes" : [
        {
            "name" : "Scene",
            "nodes" : [
                0
            ]
        }
    ],
    "nodes" : [
        {
            "mesh" : 0,
            "name" : "Numbers.003",
            "translation" : [
                -6.0595571994781494e-05,
                0.006038978695869446,
                -0.026388922706246376
            ]
        }
    ],
    "materials" : [
        {
            "doubleSided" : true,
            "name" : "Purple.003",
            "pbrMetallicRoughness" : {
                "baseColorFactor" : [
                    0.3049871623516083,
                    0.03189581632614136,
                    0.38132598996162415,
                    1
                ],
                "metallicFactor" : 0,
                "roughnessFactor" : 0.5
            }
        }
    ],
    "meshes" : [
        {
            "name" : "Text.009",
            "primitives" : [
                {
                    "attributes" : {
                        "POSITION" : 0,
                        "NORMAL" : 1,
                        "TEXCOORD_0" : 2
                    },
                    "indices" : 3,
                    "material" : 0
                }
            ]
        }
    ],
    "accessors" : [
        {
            "bufferView" : 0,
            "componentType" : 5126,
            "count" : 826,
            "max" : [
                0.5002081394195557,
                0.5955509543418884,
                0.056660041213035583
            ],
            "min" : [
                -0.5047566890716553,
                -0.6061753034591675,
                -0.05763409286737442
            ],
            "type" : "VEC3"
        },
        {
            "bufferView" : 1,
            "componentType" : 5126,
            "count" : 826,
            "type" : "VEC3"
        },
        {
            "bufferView" : 2,
            "componentType" : 5126,
            "count" : 826,
            "type" : "VEC2"
        },
        {
            "bufferView" : 3,
            "componentType" : 5123,
            "count" : 2700,
            "type" : "SCALAR"
        }
    ],
    "bufferViews" : [
        {
            "buffer" : 0,
            "byteLength" : 9912,
            "byteOffset" : 0
        },
        {
            "buffer" : 0,
            "byteLength" : 9912,
            "byteOffset" : 9912
        },
        {
            "buffer" : 0,
            "byteLength" : 6608,
            "byteOffset" : 19824
        },
        {
            "buffer" : 0,
            "byteLength" : 5400,
            "byteOffset" : 26432
        }
    ],
    "buffers" : [
        {
            "byteLength" : 31832,
            "uri" : "data:application/octet-stream;base64,"
        }
    ]
}
