{
    "asset" : {
        "generator" : "Khronos glTF Blender I/O v3.2.40",
        "version" : "2.0"
    },
    "scene" : 0,
    "scenes" : [
        {
            "name" : "Scene",
            "nodes" : [
                0
            ]
        }
    ],
    "nodes" : [
        {
            "mesh" : 0,
            "name" : "Numbers.006",
            "translation" : [
                0.011146198958158493,
                0.004092708230018616,
                0.04855778440833092
            ]
        }
    ],
    "materials" : [
        {
            "doubleSided" : true,
            "name" : "Red.003",
            "pbrMetallicRoughness" : {
                "baseColorFactor" : [
                    0.7681515216827393,
                    0.006511904764920473,
                    0.006512112449854612,
                    1
                ],
                "metallicFactor" : 0,
                "roughnessFactor" : 0.5
            }
        }
    ],
    "meshes" : [
        {
            "name" : "Text.038",
            "primitives" : [
                {
                    "attributes" : {
                        "POSITION" : 0,
                        "NORMAL" : 1,
                        "TEXCOORD_0" : 2
                    },
                    "indices" : 3,
                    "material" : 0
                }
            ]
        }
    ],
    "accessors" : [
        {
            "bufferView" : 0,
            "componentType" : 5126,
            "count" : 966,
            "max" : [
                0.5086727142333984,
                0.594192624092102,
                0.05622902885079384
            ],
            "min" : [
                -0.4962921440601349,
                -0.6075336337089539,
                -0.05806509777903557
            ],
            "type" : "VEC3"
        },
        {
            "bufferView" : 1,
            "componentType" : 5126,
            "count" : 966,
            "type" : "VEC3"
        },
        {
            "bufferView" : 2,
            "componentType" : 5126,
            "count" : 966,
            "type" : "VEC2"
        },
        {
            "bufferView" : 3,
            "componentType" : 5123,
            "count" : 3120,
            "type" : "SCALAR"
        }
    ],
    "bufferViews" : [
        {
            "buffer" : 0,
            "byteLength" : 11592,
            "byteOffset" : 0
        },
        {
            "buffer" : 0,
            "byteLength" : 11592,
            "byteOffset" : 11592
        },
        {
            "buffer" : 0,
            "byteLength" : 7728,
            "byteOffset" : 23184
        },
        {
            "buffer" : 0,
            "byteLength" : 6240,
            "byteOffset" : 30912
        }
    ],
    "buffers" : [
        {
            "byteLength" : 37152,
            "uri" : "data:application/octet-stream;base64,"
        }
    ]
}
