{
    "asset" : {
        "generator" : "Khronos glTF Blender I/O v3.2.40",
        "version" : "2.0"
    },
    "scene" : 0,
    "scenes" : [
        {
            "name" : "Scene",
            "nodes" : [
                0
            ]
        }
    ],
    "nodes" : [
        {
            "mesh" : 0,
            "name" : "Numbers.004",
            "translation" : [
                0.003984205424785614,
                0.005587846040725708,
                -0.0004910677671432495
            ]
        }
    ],
    "materials" : [
        {
            "doubleSided" : true,
            "name" : "Pink.006",
            "pbrMetallicRoughness" : {
                "baseColorFactor" : [
                    1,
                    0.31398826837539673,
                    0.40724027156829834,
                    1
                ],
                "metallicFactor" : 0,
                "roughnessFactor" : 0.5
            }
        }
    ],
    "meshes" : [
        {
            "name" : "Text.010",
            "primitives" : [
                {
                    "attributes" : {
                        "POSITION" : 0,
                        "NORMAL" : 1,
                        "TEXCOORD_0" : 2
                    },
                    "indices" : 3,
                    "material" : 0
                }
            ]
        }
    ],
    "accessors" : [
        {
            "bufferView" : 0,
            "componentType" : 5126,
            "count" : 1386,
            "max" : [
                0.49681776762008667,
                0.5895400047302246,
                0.05684943497180939
            ],
            "min" : [
                -0.508147120475769,
                -0.6121863722801208,
                -0.05744469165802002
            ],
            "type" : "VEC3"
        },
        {
            "bufferView" : 1,
            "componentType" : 5126,
            "count" : 1386,
            "type" : "VEC3"
        },
        {
            "bufferView" : 2,
            "componentType" : 5126,
            "count" : 1386,
            "type" : "VEC2"
        },
        {
            "bufferView" : 3,
            "componentType" : 5123,
            "count" : 4380,
            "type" : "SCALAR"
        }
    ],
    "bufferViews" : [
        {
            "buffer" : 0,
            "byteLength" : 16632,
            "byteOffset" : 0
        },
        {
            "buffer" : 0,
            "byteLength" : 16632,
            "byteOffset" : 16632
        },
        {
            "buffer" : 0,
            "byteLength" : 11088,
            "byteOffset" : 33264
        },
        {
            "buffer" : 0,
            "byteLength" : 8760,
            "byteOffset" : 44352
        }
    ],
    "buffers" : [
        {
            "byteLength" : 53112,
            "uri" : "data:application/octet-stream;base64,"
        }
    ]
}
