{
    "asset" : {
        "generator" : "Khronos glTF Blender I/O v3.2.40",
        "version" : "2.0"
    },
    "scene" : 0,
    "scenes" : [
        {
            "name" : "Scene",
            "nodes" : [
                0
            ]
        }
    ],
    "nodes" : [
        {
            "mesh" : 0,
            "name" : "Numbers.007",
            "translation" : [
                0.004248639568686485,
                0.0005933195352554321,
                0.0023287683725357056
            ]
        }
    ],
    "materials" : [
        {
            "doubleSided" : true,
            "name" : "Yellow.005",
            "pbrMetallicRoughness" : {
                "baseColorFactor" : [
                    1,
                    0.7304604649543762,
                    0,
                    1
                ],
                "metallicFactor" : 0,
                "roughnessFactor" : 0.5
            }
        }
    ],
    "meshes" : [
        {
            "name" : "Text.039",
            "primitives" : [
                {
                    "attributes" : {
                        "POSITION" : 0,
                        "NORMAL" : 1,
                        "TEXCOORD_0" : 2
                    },
                    "indices" : 3,
                    "material" : 0
                }
            ]
        }
    ],
    "accessors" : [
        {
            "bufferView" : 0,
            "componentType" : 5126,
            "count" : 1288,
            "max" : [
                0.5104561448097229,
                0.6047852635383606,
                0.05721506476402283
            ],
            "min" : [
                -0.49450862407684326,
                -0.5969411134719849,
                -0.057079069316387177
            ],
            "type" : "VEC3"
        },
        {
            "bufferView" : 1,
            "componentType" : 5126,
            "count" : 1288,
            "type" : "VEC3"
        },
        {
            "bufferView" : 2,
            "componentType" : 5126,
            "count" : 1288,
            "type" : "VEC2"
        },
        {
            "bufferView" : 3,
            "componentType" : 5123,
            "count" : 4092,
            "type" : "SCALAR"
        }
    ],
    "bufferViews" : [
        {
            "buffer" : 0,
            "byteLength" : 15456,
            "byteOffset" : 0
        },
        {
            "buffer" : 0,
            "byteLength" : 15456,
            "byteOffset" : 15456
        },
        {
            "buffer" : 0,
            "byteLength" : 10304,
            "byteOffset" : 30912
        },
        {
            "buffer" : 0,
            "byteLength" : 8184,
            "byteOffset" : 41216
        }
    ],
    "buffers" : [
        {
            "byteLength" : 49400,
            "uri" : "data:application/octet-stream;base64,"
        }
    ]
}
