{
    "asset" : {
        "generator" : "Khronos glTF Blender I/O v3.2.40",
        "version" : "2.0"
    },
    "scene" : 0,
    "scenes" : [
        {
            "name" : "Scene",
            "nodes" : [
                0
            ]
        }
    ],
    "nodes" : [
        {
            "mesh" : 0,
            "name" : "Numbers.008",
            "translation" : [
                0.0037809128407388926,
                0.005656406283378601,
                -0.0022794008255004883
            ]
        }
    ],
    "materials" : [
        {
            "doubleSided" : true,
            "name" : "Blue.004",
            "pbrMetallicRoughness" : {
                "baseColorFactor" : [
                    0.024157002568244934,
                    0.2917703688144684,
                    0.6444796323776245,
                    1
                ],
                "metallicFactor" : 0,
                "roughnessFactor" : 0.5
            }
        }
    ],
    "meshes" : [
        {
            "name" : "Text.040",
            "primitives" : [
                {
                    "attributes" : {
                        "POSITION" : 0,
                        "NORMAL" : 1,
                        "TEXCOORD_0" : 2
                    },
                    "indices" : 3,
                    "material" : 0
                }
            ]
        }
    ],
    "accessors" : [
        {
            "bufferView" : 0,
            "componentType" : 5126,
            "count" : 206,
            "max" : [
                0.5027015805244446,
                0.5938611626625061,
                0.05658915638923645
            ],
            "min" : [
                -0.5022632479667664,
                -0.6078651547431946,
                -0.05770498514175415
            ],
            "type" : "VEC3"
        },
        {
            "bufferView" : 1,
            "componentType" : 5126,
            "count" : 206,
            "type" : "VEC3"
        },
        {
            "bufferView" : 2,
            "componentType" : 5126,
            "count" : 206,
            "type" : "VEC2"
        },
        {
            "bufferView" : 3,
            "componentType" : 5123,
            "count" : 840,
            "type" : "SCALAR"
        }
    ],
    "bufferViews" : [
        {
            "buffer" : 0,
            "byteLength" : 2472,
            "byteOffset" : 0
        },
        {
            "buffer" : 0,
            "byteLength" : 2472,
            "byteOffset" : 2472
        },
        {
            "buffer" : 0,
            "byteLength" : 1648,
            "byteOffset" : 4944
        },
        {
            "buffer" : 0,
            "byteLength" : 1680,
            "byteOffset" : 6592
        }
    ],
    "buffers" : [
        {
            "byteLength" : 8272,
            "uri" : "data:application/octet-stream;base64,"
        }
    ]
}
