{
    "asset" : {
        "generator" : "Khronos glTF Blender I/O v3.2.40",
        "version" : "2.0"
    },
    "scene" : 0,
    "scenes" : [
        {
            "name" : "Scene",
            "nodes" : [
                0
            ]
        }
    ],
    "nodes" : [
        {
            "mesh" : 0,
            "name" : "Numbers.009",
            "translation" : [
                -0.0023641400039196014,
                -0.003084445372223854,
                0.007146716117858887
            ]
        }
    ],
    "materials" : [
        {
            "doubleSided" : true,
            "name" : "Green.004",
            "pbrMetallicRoughness" : {
                "baseColorFactor" : [
                    0.049706216901540756,
                    0.4232674539089203,
                    0.059511348605155945,
                    1
                ],
                "metallicFactor" : 0,
                "roughnessFactor" : 0.5
            }
        }
    ],
    "meshes" : [
        {
            "name" : "Text.041",
            "primitives" : [
                {
                    "attributes" : {
                        "POSITION" : 0,
                        "NORMAL" : 1,
                        "TEXCOORD_0" : 2
                    },
                    "indices" : 3,
                    "material" : 0
                }
            ]
        }
    ],
    "accessors" : [
        {
            "bufferView" : 0,
            "componentType" : 5126,
            "count" : 1670,
            "max" : [
                0.5056784749031067,
                0.6024740934371948,
                0.05633094906806946
            ],
            "min" : [
                -0.49928638339042664,
                -0.5992522239685059,
                -0.057963185012340546
            ],
            "type" : "VEC3"
        },
        {
            "bufferView" : 1,
            "componentType" : 5126,
            "count" : 1670,
            "type" : "VEC3"
        },
        {
            "bufferView" : 2,
            "componentType" : 5126,
            "count" : 1670,
            "type" : "VEC2"
        },
        {
            "bufferView" : 3,
            "componentType" : 5123,
            "count" : 5244,
            "type" : "SCALAR"
        }
    ],
    "bufferViews" : [
        {
            "buffer" : 0,
            "byteLength" : 20040,
            "byteOffset" : 0
        },
        {
            "buffer" : 0,
            "byteLength" : 20040,
            "byteOffset" : 20040
        },
        {
            "buffer" : 0,
            "byteLength" : 13360,
            "byteOffset" : 40080
        },
        {
            "buffer" : 0,
            "byteLength" : 10488,
            "byteOffset" : 53440
        }
    ],
    "buffers" : [
        {
            "byteLength" : 63928,
            "uri" : "data:application/octet-stream;base64,"
        }
    ]
}
