{
    "asset" : {
        "generator" : "Khronos glTF Blender I/O v3.2.40",
        "version" : "2.0"
    },
    "scene" : 0,
    "scenes" : [
        {
            "name" : "Scene",
            "nodes" : [
                0
            ]
        }
    ],
    "nodes" : [
        {
            "mesh" : 0,
            "name" : "Numbers.002",
            "translation" : [
                0.0012009956408292055,
                0.003150736913084984,
                -0.008682787418365479
            ]
        }
    ],
    "materials" : [
        {
            "doubleSided" : true,
            "name" : "Orange.002",
            "pbrMetallicRoughness" : {
                "baseColorFactor" : [
                    0.991101861000061,
                    0.3762618601322174,
                    0,
                    1
                ],
                "metallicFactor" : 0,
                "roughnessFactor" : 0.5
            }
        }
    ],
    "meshes" : [
        {
            "name" : "Text.008",
            "primitives" : [
                {
                    "attributes" : {
                        "POSITION" : 0,
                        "NORMAL" : 1,
                        "TEXCOORD_0" : 2
                    },
                    "indices" : 3,
                    "material" : 0
                }
            ]
        }
    ],
    "accessors" : [
        {
            "bufferView" : 0,
            "componentType" : 5126,
            "count" : 602,
            "max" : [
                0.502187967300415,
                0.5996342897415161,
                0.05645120143890381
            ],
            "min" : [
                -0.5027768611907959,
                -0.6020920276641846,
                -0.05784294009208679
            ],
            "type" : "VEC3"
        },
        {
            "bufferView" : 1,
            "componentType" : 5126,
            "count" : 602,
            "type" : "VEC3"
        },
        {
            "bufferView" : 2,
            "componentType" : 5126,
            "count" : 602,
            "type" : "VEC2"
        },
        {
            "bufferView" : 3,
            "componentType" : 5123,
            "count" : 2028,
            "type" : "SCALAR"
        }
    ],
    "bufferViews" : [
        {
            "buffer" : 0,
            "byteLength" : 7224,
            "byteOffset" : 0
        },
        {
            "buffer" : 0,
            "byteLength" : 7224,
            "byteOffset" : 7224
        },
        {
            "buffer" : 0,
            "byteLength" : 4816,
            "byteOffset" : 14448
        },
        {
            "buffer" : 0,
            "byteLength" : 4056,
            "byteOffset" : 19264
        }
    ],
    "buffers" : [
        {
            "byteLength" : 23320,
            "uri" : "data:application/octet-stream;base64,"
        }
    ]
}
