{
    "asset" : {
        "generator" : "Khronos glTF Blender I/O v3.2.40",
        "version" : "2.0"
    },
    "scene" : 0,
    "scenes" : [
        {
            "name" : "Scene",
            "nodes" : [
                0
            ]
        }
    ],
    "nodes" : [
        {
            "mesh" : 0,
            "name" : "Text.014",
            "translation" : [
                0.002644515596330166,
                0.5195562243461609,
                0.013392522931098938
            ]
        }
    ],
    "materials" : [
        {
            "doubleSided" : true,
            "name" : "Purple.002",
            "pbrMetallicRoughness" : {
                "baseColorFactor" : [
                    0.3049871623516083,
                    0.03189581632614136,
                    0.38132598996162415,
                    1
                ],
                "metallicFactor" : 0,
                "roughnessFactor" : 0.5
            }
        }
    ],
    "meshes" : [
        {
            "name" : "Text.006",
            "primitives" : [
                {
                    "attributes" : {
                        "POSITION" : 0,
                        "NORMAL" : 1,
                        "TEXCOORD_0" : 2
                    },
                    "indices" : 3,
                    "material" : 0
                }
            ]
        }
    ],
    "accessors" : [
        {
            "bufferView" : 0,
            "componentType" : 5126,
            "count" : 2442,
            "max" : [
                0.5037197470664978,
                0.7693438529968262,
                0.05488523840904236
            ],
            "min" : [
                -0.5012450218200684,
                -0.7876752018928528,
                -0.059408918023109436
            ],
            "type" : "VEC3"
        },
        {
            "bufferView" : 1,
            "componentType" : 5126,
            "count" : 2442,
            "type" : "VEC3"
        },
        {
            "bufferView" : 2,
            "componentType" : 5126,
            "count" : 2442,
            "type" : "VEC2"
        },
        {
            "bufferView" : 3,
            "componentType" : 5123,
            "count" : 7488,
            "type" : "SCALAR"
        }
    ],
    "bufferViews" : [
        {
            "buffer" : 0,
            "byteLength" : 29304,
            "byteOffset" : 0
        },
        {
            "buffer" : 0,
            "byteLength" : 29304,
            "byteOffset" : 29304
        },
        {
            "buffer" : 0,
            "byteLength" : 19536,
            "byteOffset" : 58608
        },
        {
            "buffer" : 0,
            "byteLength" : 14976,
            "byteOffset" : 78144
        }
    ],
    "buffers" : [
        {
            "byteLength" : 93120,
            "uri" : "data:application/octet-stream;base64,"
        }
    ]
}
