{
    "asset" : {
        "generator" : "Khronos glTF Blender I/O v3.2.40",
        "version" : "2.0"
    },
    "scene" : 0,
    "scenes" : [
        {
            "name" : "Scene",
            "nodes" : [
                0
            ]
        }
    ],
    "nodes" : [
        {
            "mesh" : 0,
            "name" : "Circle.005",
            "translation" : [
                -0.0058615440502762794,
                0.48993349075317383,
                0.006134998984634876
            ]
        }
    ],
    "materials" : [
        {
            "doubleSided" : true,
            "name" : "Cyan",
            "pbrMetallicRoughness" : {
                "baseColorFactor" : [
                    0.07818672060966492,
                    0.5088810324668884,
                    0.5028864145278931,
                    1
                ],
                "metallicFactor" : 0,
                "roughnessFactor" : 0.5
            }
        }
    ],
    "meshes" : [
        {
            "name" : "Circle.005",
            "primitives" : [
                {
                    "attributes" : {
                        "POSITION" : 0,
                        "NORMAL" : 1,
                        "TEXCOORD_0" : 2
                    },
                    "indices" : 3,
                    "material" : 0
                }
            ]
        }
    ],
    "accessors" : [
        {
            "bufferView" : 0,
            "componentType" : 5126,
            "count" : 1760,
            "max" : [
                0.5065647959709167,
                0.761315107345581,
                0.05835135653614998
            ],
            "min" : [
                -0.4984000325202942,
                -0.7957040071487427,
                -0.05594279244542122
            ],
            "type" : "VEC3"
        },
        {
            "bufferView" : 1,
            "componentType" : 5126,
            "count" : 1760,
            "type" : "VEC3"
        },
        {
            "bufferView" : 2,
            "componentType" : 5126,
            "count" : 1760,
            "type" : "VEC2"
        },
        {
            "bufferView" : 3,
            "componentType" : 5123,
            "count" : 5508,
            "type" : "SCALAR"
        }
    ],
    "bufferViews" : [
        {
            "buffer" : 0,
            "byteLength" : 21120,
            "byteOffset" : 0
        },
        {
            "buffer" : 0,
            "byteLength" : 21120,
            "byteOffset" : 21120
        },
        {
            "buffer" : 0,
            "byteLength" : 14080,
            "byteOffset" : 42240
        },
        {
            "buffer" : 0,
            "byteLength" : 11016,
            "byteOffset" : 56320
        }
    ],
    "buffers" : [
        {
            "byteLength" : 67336,
            "uri" : "data:application/octet-stream;base64,"
        }
    ]
}
