{
    "asset" : {
        "generator" : "Khronos glTF Blender I/O v3.2.40",
        "version" : "2.0"
    },
    "scene" : 0,
    "scenes" : [
        {
            "name" : "Scene",
            "nodes" : [
                0
            ]
        }
    ],
    "nodes" : [
        {
            "mesh" : 0,
            "name" : "Text.008",
            "translation" : [
                0.008286851458251476,
                0.002685070037841797,
                -0.0011141151189804077
            ]
        }
    ],
    "materials" : [
        {
            "doubleSided" : true,
            "name" : "Pink.005",
            "pbrMetallicRoughness" : {
                "baseColorFactor" : [
                    1,
                    0.31398826837539673,
                    0.40724027156829834,
                    1
                ],
                "metallicFactor" : 0,
                "roughnessFactor" : 0.5
            }
        }
    ],
    "meshes" : [
        {
            "name" : "Text.011",
            "primitives" : [
                {
                    "attributes" : {
                        "POSITION" : 0,
                        "NORMAL" : 1,
                        "TEXCOORD_0" : 2
                    },
                    "indices" : 3,
                    "material" : 0
                }
            ]
        }
    ],
    "accessors" : [
        {
            "bufferView" : 0,
            "componentType" : 5126,
            "count" : 1974,
            "max" : [
                0.4473940134048462,
                1.1624910831451416,
                0.059062764048576355
            ],
            "min" : [
                -0.55757075548172,
                -0.39452800154685974,
                -0.055231377482414246
            ],
            "type" : "VEC3"
        },
        {
            "bufferView" : 1,
            "componentType" : 5126,
            "count" : 1974,
            "type" : "VEC3"
        },
        {
            "bufferView" : 2,
            "componentType" : 5126,
            "count" : 1974,
            "type" : "VEC2"
        },
        {
            "bufferView" : 3,
            "componentType" : 5123,
            "count" : 6936,
            "type" : "SCALAR"
        }
    ],
    "bufferViews" : [
        {
            "buffer" : 0,
            "byteLength" : 23688,
            "byteOffset" : 0
        },
        {
            "buffer" : 0,
            "byteLength" : 23688,
            "byteOffset" : 23688
        },
        {
            "buffer" : 0,
            "byteLength" : 15792,
            "byteOffset" : 47376
        },
        {
            "buffer" : 0,
            "byteLength" : 13872,
            "byteOffset" : 63168
        }
    ],
    "buffers" : [
        {
            "byteLength" : 77040,
            "uri" : "data:application/octet-stream;base64,"
        }
    ]
}
