{
    "asset" : {
        "generator" : "Khronos glTF Blender I/O v3.2.40",
        "version" : "2.0"
    },
    "scene" : 0,
    "scenes" : [
        {
            "name" : "Scene",
            "nodes" : [
                0
            ]
        }
    ],
    "nodes" : [
        {
            "mesh" : 0,
            "name" : "Text.013",
            "translation" : [
                0.014553379267454147,
                0.5214080810546875,
                0.01226002722978592
            ]
        }
    ],
    "materials" : [
        {
            "doubleSided" : true,
            "name" : "Blue.003",
            "pbrMetallicRoughness" : {
                "baseColorFactor" : [
                    0.024157002568244934,
                    0.2917703688144684,
                    0.6444796323776245,
                    1
                ],
                "metallicFactor" : 0,
                "roughnessFactor" : 0.5
            }
        }
    ],
    "meshes" : [
        {
            "name" : "Text.005",
            "primitives" : [
                {
                    "attributes" : {
                        "POSITION" : 0,
                        "NORMAL" : 1,
                        "TEXCOORD_0" : 2
                    },
                    "indices" : 3,
                    "material" : 0
                }
            ]
        }
    ],
    "accessors" : [
        {
            "bufferView" : 0,
            "componentType" : 5126,
            "count" : 2584,
            "max" : [
                0.5076351761817932,
                0.7987489104270935,
                0.05599474906921387
            ],
            "min" : [
                -0.4973296523094177,
                -0.7582703232765198,
                -0.05829939991235733
            ],
            "type" : "VEC3"
        },
        {
            "bufferView" : 1,
            "componentType" : 5126,
            "count" : 2584,
            "type" : "VEC3"
        },
        {
            "bufferView" : 2,
            "componentType" : 5126,
            "count" : 2584,
            "type" : "VEC2"
        },
        {
            "bufferView" : 3,
            "componentType" : 5123,
            "count" : 7884,
            "type" : "SCALAR"
        }
    ],
    "bufferViews" : [
        {
            "buffer" : 0,
            "byteLength" : 31008,
            "byteOffset" : 0
        },
        {
            "buffer" : 0,
            "byteLength" : 31008,
            "byteOffset" : 31008
        },
        {
            "buffer" : 0,
            "byteLength" : 20672,
            "byteOffset" : 62016
        },
        {
            "buffer" : 0,
            "byteLength" : 15768,
            "byteOffset" : 82688
        }
    ],
    "buffers" : [
        {
            "byteLength" : 98456,
            "uri" : "data:application/octet-stream;base64,"
        }
    ]
}
