{
    "asset" : {
        "generator" : "Khronos glTF Blender I/O v3.2.40",
        "version" : "2.0"
    },
    "scene" : 0,
    "scenes" : [
        {
            "name" : "Scene",
            "nodes" : [
                0
            ]
        }
    ],
    "nodes" : [
        {
            "mesh" : 0,
            "name" : "Text.015",
            "translation" : [
                0.06689271330833435,
                -0.024478673934936523,
                0.003507465124130249
            ]
        }
    ],
    "materials" : [
        {
            "doubleSided" : true,
            "name" : "Red.002",
            "pbrMetallicRoughness" : {
                "baseColorFactor" : [
                    0.7681515216827393,
                    0.006511904764920473,
                    0.006512112449854612,
                    1
                ],
                "metallicFactor" : 0,
                "roughnessFactor" : 0.5
            }
        }
    ],
    "meshes" : [
        {
            "name" : "Text.007",
            "primitives" : [
                {
                    "attributes" : {
                        "POSITION" : 0,
                        "NORMAL" : 1,
                        "TEXCOORD_0" : 2
                    },
                    "indices" : 3,
                    "material" : 0
                }
            ]
        }
    ],
    "accessors" : [
        {
            "bufferView" : 0,
            "componentType" : 5126,
            "count" : 2932,
            "max" : [
                0.428653746843338,
                1.2968828678131104,
                0.05649232864379883
            ],
            "min" : [
                -0.5763111114501953,
                -0.26013627648353577,
                -0.05780181288719177
            ],
            "type" : "VEC3"
        },
        {
            "bufferView" : 1,
            "componentType" : 5126,
            "count" : 2932,
            "type" : "VEC3"
        },
        {
            "bufferView" : 2,
            "componentType" : 5126,
            "count" : 2932,
            "type" : "VEC2"
        },
        {
            "bufferView" : 3,
            "componentType" : 5123,
            "count" : 8904,
            "type" : "SCALAR"
        }
    ],
    "bufferViews" : [
        {
            "buffer" : 0,
            "byteLength" : 35184,
            "byteOffset" : 0
        },
        {
            "buffer" : 0,
            "byteLength" : 35184,
            "byteOffset" : 35184
        },
        {
            "buffer" : 0,
            "byteLength" : 23456,
            "byteOffset" : 70368
        },
        {
            "buffer" : 0,
            "byteLength" : 17808,
            "byteOffset" : 93824
        }
    ],
    "buffers" : [
        {
            "byteLength" : 111632,
            "uri" : "data:application/octet-stream;base64,"
        }
    ]
}
