{
    "asset" : {
        "generator" : "Khronos glTF Blender I/O v3.2.40",
        "version" : "2.0"
    },
    "scene" : 0,
    "scenes" : [
        {
            "name" : "Scene",
            "nodes" : [
                0
            ]
        }
    ],
    "nodes" : [
        {
            "mesh" : 0,
            "name" : "Text.010",
            "translation" : [
                -0.008745446801185608,
                0.5049408078193665,
                -0.03265036642551422
            ]
        }
    ],
    "materials" : [
        {
            "doubleSided" : true,
            "name" : "Orange.001",
            "pbrMetallicRoughness" : {
                "baseColorFactor" : [
                    0.991101861000061,
                    0.3762618601322174,
                    0,
                    1
                ],
                "metallicFactor" : 0,
                "roughnessFactor" : 0.5
            }
        }
    ],
    "meshes" : [
        {
            "name" : "Text.002",
            "primitives" : [
                {
                    "attributes" : {
                        "POSITION" : 0,
                        "NORMAL" : 1,
                        "TEXCOORD_0" : 2
                    },
                    "indices" : 3,
                    "material" : 0
                }
            ]
        }
    ],
    "accessors" : [
        {
            "bufferView" : 0,
            "componentType" : 5126,
            "count" : 1256,
            "max" : [
                0.5042026042938232,
                0.7476658225059509,
                0.06000206992030144
            ],
            "min" : [
                -0.5007621645927429,
                -0.8093532919883728,
                -0.0577557273209095
            ],
            "type" : "VEC3"
        },
        {
            "bufferView" : 1,
            "componentType" : 5126,
            "count" : 1256,
            "type" : "VEC3"
        },
        {
            "bufferView" : 2,
            "componentType" : 5126,
            "count" : 1256,
            "type" : "VEC2"
        },
        {
            "bufferView" : 3,
            "componentType" : 5123,
            "count" : 4056,
            "type" : "SCALAR"
        }
    ],
    "bufferViews" : [
        {
            "buffer" : 0,
            "byteLength" : 15072,
            "byteOffset" : 0
        },
        {
            "buffer" : 0,
            "byteLength" : 15072,
            "byteOffset" : 15072
        },
        {
            "buffer" : 0,
            "byteLength" : 10048,
            "byteOffset" : 30144
        },
        {
            "buffer" : 0,
            "byteLength" : 8112,
            "byteOffset" : 40192
        }
    ],
    "buffers" : [
        {
            "byteLength" : 48304,
            "uri" : "data:application/octet-stream;base64,"
        }
    ]
}
