{
    "asset" : {
        "generator" : "Khronos glTF Blender I/O v3.2.40",
        "version" : "2.0"
    },
    "scene" : 0,
    "scenes" : [
        {
            "name" : "Scene",
            "nodes" : [
                0
            ]
        }
    ],
    "nodes" : [
        {
            "mesh" : 0,
            "name" : "Text.009",
            "translation" : [
                0.001979284919798374,
                0.016906410455703735,
                -0.018553107976913452
            ]
        }
    ],
    "materials" : [
        {
            "doubleSided" : true,
            "name" : "Green.003",
            "pbrMetallicRoughness" : {
                "baseColorFactor" : [
                    0.049706216901540756,
                    0.4232674539089203,
                    0.059511348605155945,
                    1
                ],
                "metallicFactor" : 0,
                "roughnessFactor" : 0.5
            }
        }
    ],
    "meshes" : [
        {
            "name" : "Text.001",
            "primitives" : [
                {
                    "attributes" : {
                        "POSITION" : 0,
                        "NORMAL" : 1,
                        "TEXCOORD_0" : 2
                    },
                    "indices" : 3,
                    "material" : 0
                }
            ]
        }
    ],
    "accessors" : [
        {
            "bufferView" : 0,
            "componentType" : 5126,
            "count" : 3874,
            "max" : [
                0.47767534852027893,
                1.3019893169403076,
                0.05648165941238403
            ],
            "min" : [
                -0.5272893905639648,
                -0.25502949953079224,
                -0.05781245231628418
            ],
            "type" : "VEC3"
        },
        {
            "bufferView" : 1,
            "componentType" : 5126,
            "count" : 3874,
            "type" : "VEC3"
        },
        {
            "bufferView" : 2,
            "componentType" : 5126,
            "count" : 3874,
            "type" : "VEC2"
        },
        {
            "bufferView" : 3,
            "componentType" : 5123,
            "count" : 11748,
            "type" : "SCALAR"
        }
    ],
    "bufferViews" : [
        {
            "buffer" : 0,
            "byteLength" : 46488,
            "byteOffset" : 0
        },
        {
            "buffer" : 0,
            "byteLength" : 46488,
            "byteOffset" : 46488
        },
        {
            "buffer" : 0,
            "byteLength" : 30992,
            "byteOffset" : 92976
        },
        {
            "buffer" : 0,
            "byteLength" : 23496,
            "byteOffset" : 123968
        }
    ],
    "buffers" : [
        {
            "byteLength" : 147464,
            "uri" : "data:application/octet-stream;base64,"
        }
    ]
}
