{
    "asset" : {
        "generator" : "Khronos glTF Blender I/O v3.2.40",
        "version" : "2.0"
    },
    "scene" : 0,
    "scenes" : [
        {
            "name" : "Scene",
            "nodes" : [
                0
            ]
        }
    ],
    "nodes" : [
        {
            "mesh" : 0,
            "name" : "Text.012",
            "translation" : [
                -0.008440893143415451,
                0.03704708814620972,
                0.013320192694664001
            ]
        }
    ],
    "materials" : [
        {
            "doubleSided" : true,
            "name" : "Yellow.004",
            "pbrMetallicRoughness" : {
                "baseColorFactor" : [
                    1,
                    0.7304604649543762,
                    0,
                    1
                ],
                "metallicFactor" : 0,
                "roughnessFactor" : 0.5
            }
        }
    ],
    "meshes" : [
        {
            "name" : "Text.004",
            "primitives" : [
                {
                    "attributes" : {
                        "POSITION" : 0,
                        "NORMAL" : 1,
                        "TEXCOORD_0" : 2
                    },
                    "indices" : 3,
                    "material" : 0
                }
            ]
        }
    ],
    "accessors" : [
        {
            "bufferView" : 0,
            "componentType" : 5126,
            "count" : 1746,
            "max" : [
                0.5133911967277527,
                1.2688945531845093,
                0.05654507875442505
            ],
            "min" : [
                -0.49157360196113586,
                -0.2881244719028473,
                -0.05774906277656555
            ],
            "type" : "VEC3"
        },
        {
            "bufferView" : 1,
            "componentType" : 5126,
            "count" : 1746,
            "type" : "VEC3"
        },
        {
            "bufferView" : 2,
            "componentType" : 5126,
            "count" : 1746,
            "type" : "VEC2"
        },
        {
            "bufferView" : 3,
            "componentType" : 5123,
            "count" : 5460,
            "type" : "SCALAR"
        }
    ],
    "bufferViews" : [
        {
            "buffer" : 0,
            "byteLength" : 20952,
            "byteOffset" : 0
        },
        {
            "buffer" : 0,
            "byteLength" : 20952,
            "byteOffset" : 20952
        },
        {
            "buffer" : 0,
            "byteLength" : 13968,
            "byteOffset" : 41904
        },
        {
            "buffer" : 0,
            "byteLength" : 10920,
            "byteOffset" : 55872
        }
    ],
    "buffers" : [
        {
            "byteLength" : 66792,
            "uri" : "data:application/octet-stream;base64,"
        }
    ]
}
