{
    "asset" : {
        "generator" : "Khronos glTF Blender I/O v3.2.40",
        "version" : "2.0"
    },
    "scene" : 0,
    "scenes" : [
        {
            "name" : "Scene",
            "nodes" : [
                0
            ]
        }
    ],
    "nodes" : [
        {
            "mesh" : 0,
            "name" : "Letters.013",
            "translation" : [
                -0.07949883490800858,
                0.002014972036704421,
                0.17178772389888763
            ]
        }
    ],
    "materials" : [
        {
            "doubleSided" : true,
            "name" : "Purple.001",
            "pbrMetallicRoughness" : {
                "baseColorFactor" : [
                    0.3049871623516083,
                    0.03189581632614136,
                    0.38132598996162415,
                    1
                ],
                "metallicFactor" : 0,
                "roughnessFactor" : 0.5
            }
        }
    ],
    "meshes" : [
        {
            "name" : "Text.023",
            "primitives" : [
                {
                    "attributes" : {
                        "POSITION" : 0,
                        "NORMAL" : 1,
                        "TEXCOORD_0" : 2
                    },
                    "indices" : 3,
                    "material" : 0
                }
            ]
        }
    ],
    "accessors" : [
        {
            "bufferView" : 0,
            "componentType" : 5126,
            "count" : 1172,
            "max" : [
                0.6948117613792419,
                0.7628993988037109,
                0.02687273547053337
            ],
            "min" : [
                -0.5516911149024963,
                -0.7276555299758911,
                -0.11489139497280121
            ],
            "type" : "VEC3"
        },
        {
            "bufferView" : 1,
            "componentType" : 5126,
            "count" : 1172,
            "type" : "VEC3"
        },
        {
            "bufferView" : 2,
            "componentType" : 5126,
            "count" : 1172,
            "type" : "VEC2"
        },
        {
            "bufferView" : 3,
            "componentType" : 5123,
            "count" : 3720,
            "type" : "SCALAR"
        }
    ],
    "bufferViews" : [
        {
            "buffer" : 0,
            "byteLength" : 14064,
            "byteOffset" : 0
        },
        {
            "buffer" : 0,
            "byteLength" : 14064,
            "byteOffset" : 14064
        },
        {
            "buffer" : 0,
            "byteLength" : 9376,
            "byteOffset" : 28128
        },
        {
            "buffer" : 0,
            "byteLength" : 7440,
            "byteOffset" : 37504
        }
    ],
    "buffers" : [
        {
            "byteLength" : 44944,
            "uri" : "data:application/octet-stream;base64,"
        }
    ]
}
