{
    "asset" : {
        "generator" : "Khronos glTF Blender I/O v3.2.40",
        "version" : "2.0"
    },
    "scene" : 0,
    "scenes" : [
        {
            "name" : "Scene",
            "nodes" : [
                0
            ]
        }
    ],
    "nodes" : [
        {
            "mesh" : 0,
            "name" : "Plane.053",
            "translation" : [
                0.0034258440136909485,
                0.00035890936851501465,
                -0.0073174783028662205
            ]
        }
    ],
    "materials" : [
        {
            "doubleSided" : true,
            "name" : "Brown",
            "pbrMetallicRoughness" : {
                "baseColorFactor" : [
                    0.40724021196365356,
                    0.19461765885353088,
                    0.10461653023958206,
                    1
                ],
                "metallicFactor" : 0,
                "roughnessFactor" : 0.5
            }
        }
    ],
    "meshes" : [
        {
            "name" : "Plane.067",
            "primitives" : [
                {
                    "attributes" : {
                        "POSITION" : 0,
                        "NORMAL" : 1,
                        "TEXCOORD_0" : 2
                    },
                    "indices" : 3,
                    "material" : 0
                }
            ]
        }
    ],
    "accessors" : [
        {
            "bufferView" : 0,
            "componentType" : 5126,
            "count" : 2422,
            "max" : [
                0.5822588801383972,
                0.760158896446228,
                0.053131453692913055
            ],
            "min" : [
                -0.6642439961433411,
                -0.730396032333374,
                -0.11499590426683426
            ],
            "type" : "VEC3"
        },
        {
            "bufferView" : 1,
            "componentType" : 5126,
            "count" : 2422,
            "type" : "VEC3"
        },
        {
            "bufferView" : 2,
            "componentType" : 5126,
            "count" : 2422,
            "type" : "VEC2"
        },
        {
            "bufferView" : 3,
            "componentType" : 5123,
            "count" : 7722,
            "type" : "SCALAR"
        }
    ],
    "bufferViews" : [
        {
            "buffer" : 0,
            "byteLength" : 29064,
            "byteOffset" : 0
        },
        {
            "buffer" : 0,
            "byteLength" : 29064,
            "byteOffset" : 29064
        },
        {
            "buffer" : 0,
            "byteLength" : 19376,
            "byteOffset" : 58128
        },
        {
            "buffer" : 0,
            "byteLength" : 15444,
            "byteOffset" : 77504
        }
    ],
    "buffers" : [
        {
            "byteLength" : 92948,
            "uri" : "data:application/octet-stream;base64,"
        }
    ]
}
