{
    "asset" : {
        "generator" : "Khronos glTF Blender I/O v3.2.40",
        "version" : "2.0"
    },
    "scene" : 0,
    "scenes" : [
        {
            "name" : "Scene",
            "nodes" : [
                0
            ]
        }
    ],
    "nodes" : [
        {
            "mesh" : 0,
            "name" : "Letters.011",
            "rotation" : [
                0.7071068286895752,
                0,
                0,
                0.7071068286895752
            ],
            "translation" : [
                -0.0016322988085448742,
                -0.005311340093612671,
                0.05865556001663208
            ]
        }
    ],
    "materials" : [
        {
            "doubleSided" : true,
            "name" : "Brown.001",
            "pbrMetallicRoughness" : {
                "baseColorFactor" : [
                    0.40724021196365356,
                    0.19461765885353088,
                    0.10461653023958206,
                    1
                ],
                "metallicFactor" : 0,
                "roughnessFactor" : 0.5
            }
        }
    ],
    "meshes" : [
        {
            "name" : "Text.021",
            "primitives" : [
                {
                    "attributes" : {
                        "POSITION" : 0,
                        "NORMAL" : 1,
                        "TEXCOORD_0" : 2
                    },
                    "indices" : 3,
                    "material" : 0
                }
            ]
        }
    ],
    "accessors" : [
        {
            "bufferView" : 0,
            "componentType" : 5126,
            "count" : 2538,
            "max" : [
                0.6421608924865723,
                0.02363673597574234,
                0.6814249753952026
            ],
            "min" : [
                -0.604341983795166,
                -0.11812732368707657,
                -0.8091298937797546
            ],
            "type" : "VEC3"
        },
        {
            "bufferView" : 1,
            "componentType" : 5126,
            "count" : 2538,
            "type" : "VEC3"
        },
        {
            "bufferView" : 2,
            "componentType" : 5126,
            "count" : 2538,
            "type" : "VEC2"
        },
        {
            "bufferView" : 3,
            "componentType" : 5123,
            "count" : 7800,
            "type" : "SCALAR"
        }
    ],
    "bufferViews" : [
        {
            "buffer" : 0,
            "byteLength" : 30456,
            "byteOffset" : 0
        },
        {
            "buffer" : 0,
            "byteLength" : 30456,
            "byteOffset" : 30456
        },
        {
            "buffer" : 0,
            "byteLength" : 20304,
            "byteOffset" : 60912
        },
        {
            "buffer" : 0,
            "byteLength" : 15600,
            "byteOffset" : 81216
        }
    ],
    "buffers" : [
        {
            "byteLength" : 96816,
            "uri" : "data:application/octet-stream;base64,"
        }
    ]
}
