{
    "asset" : {
        "generator" : "Khronos glTF Blender I/O v3.2.40",
        "version" : "2.0"
    },
    "scene" : 0,
    "scenes" : [
        {
            "name" : "Scene",
            "nodes" : [
                0
            ]
        }
    ],
    "nodes" : [
        {
            "mesh" : 0,
            "name" : "Letters.017",
            "translation" : [
                0.0041499063372612,
                -0.0009250640869140625,
                0.0005110800266265869
            ]
        }
    ],
    "materials" : [
        {
            "doubleSided" : true,
            "name" : "Yellow.001",
            "pbrMetallicRoughness" : {
                "baseColorFactor" : [
                    1,
                    0.7304604649543762,
                    0,
                    1
                ],
                "metallicFactor" : 0,
                "roughnessFactor" : 0.5
            }
        }
    ],
    "meshes" : [
        {
            "name" : "Text.027",
            "primitives" : [
                {
                    "attributes" : {
                        "POSITION" : 0,
                        "NORMAL" : 1,
                        "TEXCOORD_0" : 2
                    },
                    "indices" : 3,
                    "material" : 0
                }
            ]
        }
    ],
    "accessors" : [
        {
            "bufferView" : 0,
            "componentType" : 5126,
            "count" : 2176,
            "max" : [
                0.6228629946708679,
                0.7522285580635071,
                0.06842520833015442
            ],
            "min" : [
                -0.6236398816108704,
                -0.7383263111114502,
                -0.07333889603614807
            ],
            "type" : "VEC3"
        },
        {
            "bufferView" : 1,
            "componentType" : 5126,
            "count" : 2176,
            "type" : "VEC3"
        },
        {
            "bufferView" : 2,
            "componentType" : 5126,
            "count" : 2176,
            "type" : "VEC2"
        },
        {
            "bufferView" : 3,
            "componentType" : 5123,
            "count" : 6744,
            "type" : "SCALAR"
        }
    ],
    "bufferViews" : [
        {
            "buffer" : 0,
            "byteLength" : 26112,
            "byteOffset" : 0
        },
        {
            "buffer" : 0,
            "byteLength" : 26112,
            "byteOffset" : 26112
        },
        {
            "buffer" : 0,
            "byteLength" : 17408,
            "byteOffset" : 52224
        },
        {
            "buffer" : 0,
            "byteLength" : 13488,
            "byteOffset" : 69632
        }
    ],
    "buffers" : [
        {
            "byteLength" : 83120,
            "uri" : "data:application/octet-stream;base64,"
        }
    ]
}
