{
    "asset" : {
        "generator" : "Khronos glTF Blender I/O v3.2.40",
        "version" : "2.0"
    },
    "scene" : 0,
    "scenes" : [
        {
            "name" : "Scene",
            "nodes" : [
                0
            ]
        }
    ],
    "nodes" : [
        {
            "mesh" : 0,
            "name" : "Letters.022",
            "translation" : [
                0.014705723151564598,
                0.004605412483215332,
                0.007466167211532593
            ]
        }
    ],
    "materials" : [
        {
            "doubleSided" : true,
            "name" : "Yellow.002",
            "pbrMetallicRoughness" : {
                "baseColorFactor" : [
                    1,
                    0.7304604649543762,
                    0,
                    1
                ],
                "metallicFactor" : 0,
                "roughnessFactor" : 0.5
            }
        }
    ],
    "meshes" : [
        {
            "name" : "Text.032",
            "primitives" : [
                {
                    "attributes" : {
                        "POSITION" : 0,
                        "NORMAL" : 1,
                        "TEXCOORD_0" : 2
                    },
                    "indices" : 3,
                    "material" : 0
                }
            ]
        }
    ],
    "accessors" : [
        {
            "bufferView" : 0,
            "componentType" : 5126,
            "count" : 2096,
            "max" : [
                0.6479858160018921,
                0.7695682644844055,
                0.06222715973854065
            ],
            "min" : [
                -0.5985170602798462,
                -0.7209866046905518,
                -0.07953694462776184
            ],
            "type" : "VEC3"
        },
        {
            "bufferView" : 1,
            "componentType" : 5126,
            "count" : 2096,
            "type" : "VEC3"
        },
        {
            "bufferView" : 2,
            "componentType" : 5126,
            "count" : 2096,
            "type" : "VEC2"
        },
        {
            "bufferView" : 3,
            "componentType" : 5123,
            "count" : 6492,
            "type" : "SCALAR"
        }
    ],
    "bufferViews" : [
        {
            "buffer" : 0,
            "byteLength" : 25152,
            "byteOffset" : 0
        },
        {
            "buffer" : 0,
            "byteLength" : 25152,
            "byteOffset" : 25152
        },
        {
            "buffer" : 0,
            "byteLength" : 16768,
            "byteOffset" : 50304
        },
        {
            "buffer" : 0,
            "byteLength" : 12984,
            "byteOffset" : 67072
        }
    ],
    "buffers" : [
        {
            "byteLength" : 80056,
            "uri" : "data:application/octet-stream;base64,"
        }
    ]
}
