{
    "asset" : {
        "generator" : "Khronos glTF Blender I/O v3.2.40",
        "version" : "2.0"
    },
    "scene" : 0,
    "scenes" : [
        {
            "name" : "Scene",
            "nodes" : [
                0
            ]
        }
    ],
    "nodes" : [
        {
            "mesh" : 0,
            "name" : "Letters.019",
            "translation" : [
                0.0029027238488197327,
                0.0006404886953532696,
                -0.006943047046661377
            ]
        }
    ],
    "materials" : [
        {
            "doubleSided" : true,
            "name" : "Green.001",
            "pbrMetallicRoughness" : {
                "baseColorFactor" : [
                    0.049706216901540756,
                    0.4232674539089203,
                    0.059511348605155945,
                    1
                ],
                "metallicFactor" : 0,
                "roughnessFactor" : 0.5
            }
        }
    ],
    "meshes" : [
        {
            "name" : "Text.029",
            "primitives" : [
                {
                    "attributes" : {
                        "POSITION" : 0,
                        "NORMAL" : 1,
                        "TEXCOORD_0" : 2
                    },
                    "indices" : 3,
                    "material" : 0
                }
            ]
        }
    ],
    "accessors" : [
        {
            "bufferView" : 0,
            "componentType" : 5126,
            "count" : 2150,
            "max" : [
                0.6312042474746704,
                0.7532727122306824,
                0.069562166929245
            ],
            "min" : [
                -0.6152986288070679,
                -0.7372820973396301,
                -0.0722019374370575
            ],
            "type" : "VEC3"
        },
        {
            "bufferView" : 1,
            "componentType" : 5126,
            "count" : 2150,
            "type" : "VEC3"
        },
        {
            "bufferView" : 2,
            "componentType" : 5126,
            "count" : 2150,
            "type" : "VEC2"
        },
        {
            "bufferView" : 3,
            "componentType" : 5123,
            "count" : 6660,
            "type" : "SCALAR"
        }
    ],
    "bufferViews" : [
        {
            "buffer" : 0,
            "byteLength" : 25800,
            "byteOffset" : 0
        },
        {
            "buffer" : 0,
            "byteLength" : 25800,
            "byteOffset" : 25800
        },
        {
            "buffer" : 0,
            "byteLength" : 17200,
            "byteOffset" : 51600
        },
        {
            "buffer" : 0,
            "byteLength" : 13320,
            "byteOffset" : 68800
        }
    ],
    "buffers" : [
        {
            "byteLength" : 82120,
            "uri" : "data:application/octet-stream;base64,"
        }
    ]
}
