{
    "asset" : {
        "generator" : "Khronos glTF Blender I/O v3.2.40",
        "version" : "2.0"
    },
    "scene" : 0,
    "scenes" : [
        {
            "name" : "Scene",
            "nodes" : [
                0
            ]
        }
    ],
    "nodes" : [
        {
            "mesh" : 0,
            "name" : "Letters.026",
            "translation" : [
                -0.0002665407955646515,
                0.006464511156082153,
                0.00023886561393737793
            ]
        }
    ],
    "materials" : [
        {
            "doubleSided" : true,
            "name" : "Brown.004",
            "pbrMetallicRoughness" : {
                "baseColorFactor" : [
                    0.40724021196365356,
                    0.19461765885353088,
                    0.10461653023958206,
                    1
                ],
                "metallicFactor" : 0,
                "roughnessFactor" : 0.5
            }
        }
    ],
    "meshes" : [
        {
            "name" : "Text.036",
            "primitives" : [
                {
                    "attributes" : {
                        "POSITION" : 0,
                        "NORMAL" : 1,
                        "TEXCOORD_0" : 2
                    },
                    "indices" : 3,
                    "material" : 0
                }
            ]
        }
    ],
    "accessors" : [
        {
            "bufferView" : 0,
            "componentType" : 5126,
            "count" : 3878,
            "max" : [
                0.5890316963195801,
                0.7928599119186401,
                0.063181072473526
            ],
            "min" : [
                -0.6574702262878418,
                -0.6976950168609619,
                -0.07858306169509888
            ],
            "type" : "VEC3"
        },
        {
            "bufferView" : 1,
            "componentType" : 5126,
            "count" : 3878,
            "type" : "VEC3"
        },
        {
            "bufferView" : 2,
            "componentType" : 5126,
            "count" : 3878,
            "type" : "VEC2"
        },
        {
            "bufferView" : 3,
            "componentType" : 5123,
            "count" : 6276,
            "type" : "SCALAR"
        }
    ],
    "bufferViews" : [
        {
            "buffer" : 0,
            "byteLength" : 46536,
            "byteOffset" : 0
        },
        {
            "buffer" : 0,
            "byteLength" : 46536,
            "byteOffset" : 46536
        },
        {
            "buffer" : 0,
            "byteLength" : 31024,
            "byteOffset" : 93072
        },
        {
            "buffer" : 0,
            "byteLength" : 12552,
            "byteOffset" : 124096
        }
    ],
    "buffers" : [
        {
            "byteLength" : 136648,
            "uri" : "data:application/octet-stream;base64,"
        }
    ]
}
