{
    "asset" : {
        "generator" : "Khronos glTF Blender I/O v3.2.40",
        "version" : "2.0"
    },
    "scene" : 0,
    "scenes" : [
        {
            "name" : "Scene",
            "nodes" : [
                0
            ]
        }
    ],
    "nodes" : [
        {
            "mesh" : 0,
            "name" : "Letters.014",
            "translation" : [
                -0.0011363178491592407,
                0.00039511919021606445,
                0.007612302899360657
            ]
        }
    ],
    "materials" : [
        {
            "doubleSided" : true,
            "name" : "Pink.002",
            "pbrMetallicRoughness" : {
                "baseColorFactor" : [
                    1,
                    0.31398826837539673,
                    0.40724027156829834,
                    1
                ],
                "metallicFactor" : 0,
                "roughnessFactor" : 0.5
            }
        }
    ],
    "meshes" : [
        {
            "name" : "Text.024",
            "primitives" : [
                {
                    "attributes" : {
                        "POSITION" : 0,
                        "NORMAL" : 1,
                        "TEXCOORD_0" : 2
                    },
                    "indices" : 3,
                    "material" : 0
                }
            ]
        }
    ],
    "accessors" : [
        {
            "bufferView" : 0,
            "componentType" : 5126,
            "count" : 2796,
            "max" : [
                0.6321969628334045,
                0.7479221820831299,
                0.07060986757278442
            ],
            "min" : [
                -0.6143057942390442,
                -0.7426326274871826,
                -0.07115423679351807
            ],
            "type" : "VEC3"
        },
        {
            "bufferView" : 1,
            "componentType" : 5126,
            "count" : 2796,
            "type" : "VEC3"
        },
        {
            "bufferView" : 2,
            "componentType" : 5126,
            "count" : 2796,
            "type" : "VEC2"
        },
        {
            "bufferView" : 3,
            "componentType" : 5123,
            "count" : 8592,
            "type" : "SCALAR"
        }
    ],
    "bufferViews" : [
        {
            "buffer" : 0,
            "byteLength" : 33552,
            "byteOffset" : 0
        },
        {
            "buffer" : 0,
            "byteLength" : 33552,
            "byteOffset" : 33552
        },
        {
            "buffer" : 0,
            "byteLength" : 22368,
            "byteOffset" : 67104
        },
        {
            "buffer" : 0,
            "byteLength" : 17184,
            "byteOffset" : 89472
        }
    ],
    "buffers" : [
        {
            "byteLength" : 106656,
            "uri" : "data:application/octet-stream;base64,"
        }
    ]
}
