{
    "asset" : {
        "generator" : "Khronos glTF Blender I/O v3.2.40",
        "version" : "2.0"
    },
    "scene" : 0,
    "scenes" : [
        {
            "name" : "Scene",
            "nodes" : [
                0
            ]
        }
    ],
    "nodes" : [
        {
            "mesh" : 0,
            "name" : "Plane.052",
            "rotation" : [
                0.7071068286895752,
                0,
                0,
                0.7071068286895752
            ],
            "translation" : [
                0.0006686989217996597,
                0.20037558674812317,
                0.0009524896740913391
            ]
        }
    ],
    "materials" : [
        {
            "doubleSided" : true,
            "name" : "Pink",
            "pbrMetallicRoughness" : {
                "baseColorFactor" : [
                    1,
                    0.31398826837539673,
                    0.40724027156829834,
                    1
                ],
                "metallicFactor" : 0,
                "roughnessFactor" : 0.5
            }
        }
    ],
    "meshes" : [
        {
            "name" : "Plane.066",
            "primitives" : [
                {
                    "attributes" : {
                        "POSITION" : 0,
                        "NORMAL" : 1,
                        "TEXCOORD_0" : 2
                    },
                    "indices" : 3,
                    "material" : 0
                }
            ]
        }
    ],
    "accessors" : [
        {
            "bufferView" : 0,
            "componentType" : 5126,
            "count" : 2264,
            "max" : [
                0.5749629139900208,
                0.026983976364135742,
                0.7647614479064941
            ],
            "min" : [
                -0.6715399622917175,
                -0.11478007584810257,
                -0.7257934212684631
            ],
            "type" : "VEC3"
        },
        {
            "bufferView" : 1,
            "componentType" : 5126,
            "count" : 2264,
            "type" : "VEC3"
        },
        {
            "bufferView" : 2,
            "componentType" : 5126,
            "count" : 2264,
            "type" : "VEC2"
        },
        {
            "bufferView" : 3,
            "componentType" : 5123,
            "count" : 7236,
            "type" : "SCALAR"
        }
    ],
    "bufferViews" : [
        {
            "buffer" : 0,
            "byteLength" : 27168,
            "byteOffset" : 0
        },
        {
            "buffer" : 0,
            "byteLength" : 27168,
            "byteOffset" : 27168
        },
        {
            "buffer" : 0,
            "byteLength" : 18112,
            "byteOffset" : 54336
        },
        {
            "buffer" : 0,
            "byteLength" : 14472,
            "byteOffset" : 72448
        }
    ],
    "buffers" : [
        {
            "byteLength" : 86920,
            "uri" : "data:application/octet-stream;base64,"
        }
    ]
}
