{
    "asset" : {
        "generator" : "Khronos glTF Blender I/O v3.2.40",
        "version" : "2.0"
    },
    "scene" : 0,
    "scenes" : [
        {
            "name" : "Scene",
            "nodes" : [
                0
            ]
        }
    ],
    "nodes" : [
        {
            "mesh" : 0,
            "name" : "Letters.018",
            "translation" : [
                -0.005364369601011276,
                0.00022385921329259872,
                -0.006308168172836304
            ]
        }
    ],
    "materials" : [
        {
            "doubleSided" : true,
            "name" : "Blue.001",
            "pbrMetallicRoughness" : {
                "baseColorFactor" : [
                    0.024157002568244934,
                    0.2917703688144684,
                    0.6444796323776245,
                    1
                ],
                "metallicFactor" : 0,
                "roughnessFactor" : 0.5
            }
        }
    ],
    "meshes" : [
        {
            "name" : "Text.028",
            "primitives" : [
                {
                    "attributes" : {
                        "POSITION" : 0,
                        "NORMAL" : 1,
                        "TEXCOORD_0" : 2
                    },
                    "indices" : 3,
                    "material" : 0
                }
            ]
        }
    ],
    "accessors" : [
        {
            "bufferView" : 0,
            "componentType" : 5126,
            "count" : 2284,
            "max" : [
                0.6237249970436096,
                0.7575480937957764,
                0.0687357634305954
            ],
            "min" : [
                -0.6227778792381287,
                -0.7330068349838257,
                -0.07302836328744888
            ],
            "type" : "VEC3"
        },
        {
            "bufferView" : 1,
            "componentType" : 5126,
            "count" : 2284,
            "type" : "VEC3"
        },
        {
            "bufferView" : 2,
            "componentType" : 5126,
            "count" : 2284,
            "type" : "VEC2"
        },
        {
            "bufferView" : 3,
            "componentType" : 5123,
            "count" : 7068,
            "type" : "SCALAR"
        }
    ],
    "bufferViews" : [
        {
            "buffer" : 0,
            "byteLength" : 27408,
            "byteOffset" : 0
        },
        {
            "buffer" : 0,
            "byteLength" : 27408,
            "byteOffset" : 27408
        },
        {
            "buffer" : 0,
            "byteLength" : 18272,
            "byteOffset" : 54816
        },
        {
            "buffer" : 0,
            "byteLength" : 14136,
            "byteOffset" : 73088
        }
    ],
    "buffers" : [
        {
            "byteLength" : 87224,
            "uri" : "data:application/octet-stream;base64,"
        }
    ]
}
