{
    "asset" : {
        "generator" : "Khronos glTF Blender I/O v3.2.40",
        "version" : "2.0"
    },
    "scene" : 0,
    "scenes" : [
        {
            "name" : "Scene",
            "nodes" : [
                0
            ]
        }
    ],
    "nodes" : [
        {
            "mesh" : 0,
            "name" : "Letters.012",
            "rotation" : [
                0.7071068286895752,
                0,
                0,
                0.7071068286895752
            ],
            "translation" : [
                0.0016157487407326698,
                0.01062360405921936,
                0.023643285036087036
            ]
        }
    ],
    "materials" : [
        {
            "doubleSided" : true,
            "name" : "Orange",
            "pbrMetallicRoughness" : {
                "baseColorFactor" : [
                    0.991101861000061,
                    0.3762618601322174,
                    0,
                    1
                ],
                "metallicFactor" : 0,
                "roughnessFactor" : 0.5
            }
        }
    ],
    "meshes" : [
        {
            "name" : "Text.022",
            "primitives" : [
                {
                    "attributes" : {
                        "POSITION" : 0,
                        "NORMAL" : 1,
                        "TEXCOORD_0" : 2
                    },
                    "indices" : 3,
                    "material" : 0
                }
            ]
        }
    ],
    "accessors" : [
        {
            "bufferView" : 0,
            "componentType" : 5126,
            "count" : 2120,
            "max" : [
                0.620593249797821,
                0.0254229623824358,
                0.7359080910682678
            ],
            "min" : [
                -0.6259096264839172,
                -0.11634109914302826,
                -0.7546467781066895
            ],
            "type" : "VEC3"
        },
        {
            "bufferView" : 1,
            "componentType" : 5126,
            "count" : 2120,
            "type" : "VEC3"
        },
        {
            "bufferView" : 2,
            "componentType" : 5126,
            "count" : 2120,
            "type" : "VEC2"
        },
        {
            "bufferView" : 3,
            "componentType" : 5123,
            "count" : 6564,
            "type" : "SCALAR"
        }
    ],
    "bufferViews" : [
        {
            "buffer" : 0,
            "byteLength" : 25440,
            "byteOffset" : 0
        },
        {
            "buffer" : 0,
            "byteLength" : 25440,
            "byteOffset" : 25440
        },
        {
            "buffer" : 0,
            "byteLength" : 16960,
            "byteOffset" : 50880
        },
        {
            "buffer" : 0,
            "byteLength" : 13128,
            "byteOffset" : 67840
        }
    ],
    "buffers" : [
        {
            "byteLength" : 80968,
            "uri" : "data:application/octet-stream;base64,"
        }
    ]
}
