{
    "asset" : {
        "generator" : "Khronos glTF Blender I/O v3.2.40",
        "version" : "2.0"
    },
    "scene" : 0,
    "scenes" : [
        {
            "name" : "Scene",
            "nodes" : [
                0
            ]
        }
    ],
    "nodes" : [
        {
            "mesh" : 0,
            "name" : "Plane.048",
            "translation" : [
                0.0038926005363464355,
                -0.006038755178451538,
                0.27143996953964233
            ]
        }
    ],
    "materials" : [
        {
            "doubleSided" : true,
            "name" : "Blue",
            "pbrMetallicRoughness" : {
                "baseColorFactor" : [
                    0.024157002568244934,
                    0.2917703688144684,
                    0.6444796323776245,
                    1
                ],
                "metallicFactor" : 0,
                "roughnessFactor" : 0.5
            }
        }
    ],
    "meshes" : [
        {
            "name" : "Plane.062",
            "primitives" : [
                {
                    "attributes" : {
                        "POSITION" : 0,
                        "NORMAL" : 1,
                        "TEXCOORD_0" : 2
                    },
                    "indices" : 3,
                    "material" : 0
                }
            ]
        }
    ],
    "accessors" : [
        {
            "bufferView" : 0,
            "componentType" : 5126,
            "count" : 3810,
            "max" : [
                0.5398879051208496,
                0.8288075923919678,
                0.025619179010391235
            ],
            "min" : [
                -0.7066149711608887,
                -0.6617473363876343,
                -0.11614495515823364
            ],
            "type" : "VEC3"
        },
        {
            "bufferView" : 1,
            "componentType" : 5126,
            "count" : 3810,
            "type" : "VEC3"
        },
        {
            "bufferView" : 2,
            "componentType" : 5126,
            "count" : 3810,
            "type" : "VEC2"
        },
        {
            "bufferView" : 3,
            "componentType" : 5123,
            "count" : 11898,
            "type" : "SCALAR"
        }
    ],
    "bufferViews" : [
        {
            "buffer" : 0,
            "byteLength" : 45720,
            "byteOffset" : 0
        },
        {
            "buffer" : 0,
            "byteLength" : 45720,
            "byteOffset" : 45720
        },
        {
            "buffer" : 0,
            "byteLength" : 30480,
            "byteOffset" : 91440
        },
        {
            "buffer" : 0,
            "byteLength" : 23796,
            "byteOffset" : 121920
        }
    ],
    "buffers" : [
        {
            "byteLength" : 145716,
            "uri" : "data:application/octet-stream;base64,"
        }
    ]
}
