{
    "asset" : {
        "generator" : "Khronos glTF Blender I/O v3.2.40",
        "version" : "2.0"
    },
    "scene" : 0,
    "scenes" : [
        {
            "name" : "Scene",
            "nodes" : [
                0
            ]
        }
    ],
    "nodes" : [
        {
            "mesh" : 0,
            "name" : "Letters.023",
            "translation" : [
                0.003787018358707428,
                -0.004991933703422546,
                0.007947206497192383
            ]
        }
    ],
    "materials" : [
        {
            "doubleSided" : true,
            "name" : "Blue.002",
            "pbrMetallicRoughness" : {
                "baseColorFactor" : [
                    0.024157002568244934,
                    0.2917703688144684,
                    0.6444796323776245,
                    1
                ],
                "metallicFactor" : 0,
                "roughnessFactor" : 0.5
            }
        }
    ],
    "meshes" : [
        {
            "name" : "Text.033",
            "primitives" : [
                {
                    "attributes" : {
                        "POSITION" : 0,
                        "NORMAL" : 1,
                        "TEXCOORD_0" : 2
                    },
                    "indices" : 3,
                    "material" : 0
                }
            ]
        }
    ],
    "accessors" : [
        {
            "bufferView" : 0,
            "componentType" : 5126,
            "count" : 2494,
            "max" : [
                0.5963463187217712,
                0.598432719707489,
                0.06704571843147278
            ],
            "min" : [
                -0.650156557559967,
                -0.892122209072113,
                -0.0747184157371521
            ],
            "type" : "VEC3"
        },
        {
            "bufferView" : 1,
            "componentType" : 5126,
            "count" : 2494,
            "type" : "VEC3"
        },
        {
            "bufferView" : 2,
            "componentType" : 5126,
            "count" : 2494,
            "type" : "VEC2"
        },
        {
            "bufferView" : 3,
            "componentType" : 5123,
            "count" : 4044,
            "type" : "SCALAR"
        }
    ],
    "bufferViews" : [
        {
            "buffer" : 0,
            "byteLength" : 29928,
            "byteOffset" : 0
        },
        {
            "buffer" : 0,
            "byteLength" : 29928,
            "byteOffset" : 29928
        },
        {
            "buffer" : 0,
            "byteLength" : 19952,
            "byteOffset" : 59856
        },
        {
            "buffer" : 0,
            "byteLength" : 8088,
            "byteOffset" : 79808
        }
    ],
    "buffers" : [
        {
            "byteLength" : 87896,
            "uri" : "data:application/octet-stream;base64,"
        }
    ]
}
