{
    "asset" : {
        "generator" : "Khronos glTF Blender I/O v3.2.40",
        "version" : "2.0"
    },
    "scene" : 0,
    "scenes" : [
        {
            "name" : "Scene",
            "nodes" : [
                0
            ]
        }
    ],
    "nodes" : [
        {
            "mesh" : 0,
            "name" : "Letters.015",
            "translation" : [
                0.003719661384820938,
                0.0011301087215542793,
                -0.06328821927309036
            ]
        }
    ],
    "materials" : [
        {
            "doubleSided" : true,
            "name" : "Brown.002",
            "pbrMetallicRoughness" : {
                "baseColorFactor" : [
                    0.40724021196365356,
                    0.19461765885353088,
                    0.10461653023958206,
                    1
                ],
                "metallicFactor" : 0,
                "roughnessFactor" : 0.5
            }
        }
    ],
    "meshes" : [
        {
            "name" : "Text.025",
            "primitives" : [
                {
                    "attributes" : {
                        "POSITION" : 0,
                        "NORMAL" : 1,
                        "TEXCOORD_0" : 2
                    },
                    "indices" : 3,
                    "material" : 0
                }
            ]
        }
    ],
    "accessors" : [
        {
            "bufferView" : 0,
            "componentType" : 5126,
            "count" : 1644,
            "max" : [
                0.6245042681694031,
                0.7398534417152405,
                0.06975584477186203
            ],
            "min" : [
                -0.6219986081123352,
                -0.7507014274597168,
                -0.07200827449560165
            ],
            "type" : "VEC3"
        },
        {
            "bufferView" : 1,
            "componentType" : 5126,
            "count" : 1644,
            "type" : "VEC3"
        },
        {
            "bufferView" : 2,
            "componentType" : 5126,
            "count" : 1644,
            "type" : "VEC2"
        },
        {
            "bufferView" : 3,
            "componentType" : 5123,
            "count" : 5136,
            "type" : "SCALAR"
        }
    ],
    "bufferViews" : [
        {
            "buffer" : 0,
            "byteLength" : 19728,
            "byteOffset" : 0
        },
        {
            "buffer" : 0,
            "byteLength" : 19728,
            "byteOffset" : 19728
        },
        {
            "buffer" : 0,
            "byteLength" : 13152,
            "byteOffset" : 39456
        },
        {
            "buffer" : 0,
            "byteLength" : 10272,
            "byteOffset" : 52608
        }
    ],
    "buffers" : [
        {
            "byteLength" : 62880,
            "uri" : "data:application/octet-stream;base64,"
        }
    ]
}
