{
    "asset" : {
        "generator" : "Khronos glTF Blender I/O v3.2.40",
        "version" : "2.0"
    },
    "scene" : 0,
    "scenes" : [
        {
            "name" : "Scene",
            "nodes" : [
                0
            ]
        }
    ],
    "nodes" : [
        {
            "mesh" : 0,
            "name" : "Letters.003",
            "translation" : [
                0.02152200974524021,
                0.15408945083618164,
                -0.010314994491636753
            ]
        }
    ],
    "materials" : [
        {
            "doubleSided" : true,
            "name" : "Purple",
            "pbrMetallicRoughness" : {
                "baseColorFactor" : [
                    0.3049871623516083,
                    0.03189581632614136,
                    0.38132598996162415,
                    1
                ],
                "metallicFactor" : 0,
                "roughnessFactor" : 0.5
            }
        }
    ],
    "meshes" : [
        {
            "name" : "Text.012",
            "primitives" : [
                {
                    "attributes" : {
                        "POSITION" : 0,
                        "NORMAL" : 1,
                        "TEXCOORD_0" : 2
                    },
                    "indices" : 3,
                    "material" : 0
                }
            ]
        }
    ],
    "accessors" : [
        {
            "bufferView" : 0,
            "componentType" : 5126,
            "count" : 2662,
            "max" : [
                0.6021438241004944,
                0.7640594244003296,
                0.06973662972450256
            ],
            "min" : [
                -0.6443590521812439,
                -0.7264953851699829,
                -0.07202749699354172
            ],
            "type" : "VEC3"
        },
        {
            "bufferView" : 1,
            "componentType" : 5126,
            "count" : 2662,
            "type" : "VEC3"
        },
        {
            "bufferView" : 2,
            "componentType" : 5126,
            "count" : 2662,
            "type" : "VEC2"
        },
        {
            "bufferView" : 3,
            "componentType" : 5123,
            "count" : 8448,
            "type" : "SCALAR"
        }
    ],
    "bufferViews" : [
        {
            "buffer" : 0,
            "byteLength" : 31944,
            "byteOffset" : 0
        },
        {
            "buffer" : 0,
            "byteLength" : 31944,
            "byteOffset" : 31944
        },
        {
            "buffer" : 0,
            "byteLength" : 21296,
            "byteOffset" : 63888
        },
        {
            "buffer" : 0,
            "byteLength" : 16896,
            "byteOffset" : 85184
        }
    ],
    "buffers" : [
        {
            "byteLength" : 102080,
            "uri" : "data:application/octet-stream;base64,"
        }
    ]
}
