{
    "asset" : {
        "generator" : "Khronos glTF Blender I/O v3.2.40",
        "version" : "2.0"
    },
    "scene" : 0,
    "scenes" : [
        {
            "name" : "Scene",
            "nodes" : [
                0
            ]
        }
    ],
    "nodes" : [
        {
            "mesh" : 0,
            "name" : "Letters.001",
            "translation" : [
                -0.001088261022232473,
                -0.0010407716035842896,
                0.00873236358165741
            ]
        }
    ],
    "materials" : [
        {
            "doubleSided" : true,
            "name" : "Yellow.003",
            "pbrMetallicRoughness" : {
                "baseColorFactor" : [
                    1,
                    0.7304604649543762,
                    0,
                    1
                ],
                "metallicFactor" : 0,
                "roughnessFactor" : 0.5
            }
        }
    ],
    "meshes" : [
        {
            "name" : "Text.019",
            "primitives" : [
                {
                    "attributes" : {
                        "POSITION" : 0,
                        "NORMAL" : 1,
                        "TEXCOORD_0" : 2
                    },
                    "indices" : 3,
                    "material" : 0
                }
            ]
        }
    ],
    "accessors" : [
        {
            "bufferView" : 0,
            "componentType" : 5126,
            "count" : 748,
            "max" : [
                0.6309394240379333,
                0.7566214799880981,
                0.068361297249794
            ],
            "min" : [
                -0.6155634522438049,
                -0.7339333891868591,
                -0.07340280711650848
            ],
            "type" : "VEC3"
        },
        {
            "bufferView" : 1,
            "componentType" : 5126,
            "count" : 748,
            "type" : "VEC3"
        },
        {
            "bufferView" : 2,
            "componentType" : 5126,
            "count" : 748,
            "type" : "VEC2"
        },
        {
            "bufferView" : 3,
            "componentType" : 5123,
            "count" : 2448,
            "type" : "SCALAR"
        }
    ],
    "bufferViews" : [
        {
            "buffer" : 0,
            "byteLength" : 8976,
            "byteOffset" : 0
        },
        {
            "buffer" : 0,
            "byteLength" : 8976,
            "byteOffset" : 8976
        },
        {
            "buffer" : 0,
            "byteLength" : 5984,
            "byteOffset" : 17952
        },
        {
            "buffer" : 0,
            "byteLength" : 4896,
            "byteOffset" : 23936
        }
    ],
    "buffers" : [
        {
            "byteLength" : 28832,
            "uri" : "data:application/octet-stream;base64,"
        }
    ]
}
