{
    "asset" : {
        "generator" : "Khronos glTF Blender I/O v3.2.40",
        "version" : "2.0"
    },
    "scene" : 0,
    "scenes" : [
        {
            "name" : "Scene",
            "nodes" : [
                0
            ]
        }
    ],
    "nodes" : [
        {
            "mesh" : 0,
            "name" : "Letters.020",
            "rotation" : [
                0.7071068286895752,
                0,
                0,
                0.7071068286895752
            ],
            "translation" : [
                0.0062909722328186035,
                0.004080627113580704,
                -0.0209181010723114
            ]
        }
    ],
    "materials" : [
        {
            "doubleSided" : true,
            "name" : "Pink.003",
            "pbrMetallicRoughness" : {
                "baseColorFactor" : [
                    1,
                    0.31398826837539673,
                    0.40724027156829834,
                    1
                ],
                "metallicFactor" : 0,
                "roughnessFactor" : 0.5
            }
        }
    ],
    "meshes" : [
        {
            "name" : "Text.030",
            "primitives" : [
                {
                    "attributes" : {
                        "POSITION" : 0,
                        "NORMAL" : 1,
                        "TEXCOORD_0" : 2
                    },
                    "indices" : 3,
                    "material" : 0
                }
            ]
        }
    ],
    "accessors" : [
        {
            "bufferView" : 0,
            "componentType" : 5126,
            "count" : 3060,
            "max" : [
                0.6305320858955383,
                0.06946882605552673,
                0.7404651641845703
            ],
            "min" : [
                -0.6159707903862,
                -0.07229523360729218,
                -0.750089704990387
            ],
            "type" : "VEC3"
        },
        {
            "bufferView" : 1,
            "componentType" : 5126,
            "count" : 3060,
            "type" : "VEC3"
        },
        {
            "bufferView" : 2,
            "componentType" : 5126,
            "count" : 3060,
            "type" : "VEC2"
        },
        {
            "bufferView" : 3,
            "componentType" : 5123,
            "count" : 9384,
            "type" : "SCALAR"
        }
    ],
    "bufferViews" : [
        {
            "buffer" : 0,
            "byteLength" : 36720,
            "byteOffset" : 0
        },
        {
            "buffer" : 0,
            "byteLength" : 36720,
            "byteOffset" : 36720
        },
        {
            "buffer" : 0,
            "byteLength" : 24480,
            "byteOffset" : 73440
        },
        {
            "buffer" : 0,
            "byteLength" : 18768,
            "byteOffset" : 97920
        }
    ],
    "buffers" : [
        {
            "byteLength" : 116688,
            "uri" : "data:application/octet-stream;base64,"
        }
    ]
}
