{
    "asset" : {
        "generator" : "Khronos glTF Blender I/O v3.2.40",
        "version" : "2.0"
    },
    "scene" : 0,
    "scenes" : [
        {
            "name" : "Scene",
            "nodes" : [
                0
            ]
        }
    ],
    "nodes" : [
        {
            "mesh" : 0,
            "name" : "Plane.046",
            "translation" : [
                -0.0007078350754454732,
                -0.0002481848932802677,
                -0.00013154142652638257
            ]
        }
    ],
    "materials" : [
        {
            "doubleSided" : true,
            "name" : "Red",
            "pbrMetallicRoughness" : {
                "baseColorFactor" : [
                    0.7681515216827393,
                    0.006511904764920473,
                    0.006512112449854612,
                    1
                ],
                "metallicFactor" : 0,
                "roughnessFactor" : 0.5
            }
        }
    ],
    "meshes" : [
        {
            "name" : "Plane.060",
            "primitives" : [
                {
                    "attributes" : {
                        "POSITION" : 0,
                        "NORMAL" : 1,
                        "TEXCOORD_0" : 2
                    },
                    "indices" : 3,
                    "material" : 0
                }
            ]
        }
    ],
    "accessors" : [
        {
            "bufferView" : 0,
            "componentType" : 5126,
            "count" : 2032,
            "max" : [
                0.5892010927200317,
                0.7727158069610596,
                0.027367889881134033
            ],
            "min" : [
                -0.6573017835617065,
                -0.7178391218185425,
                -0.11439623683691025
            ],
            "type" : "VEC3"
        },
        {
            "bufferView" : 1,
            "componentType" : 5126,
            "count" : 2032,
            "type" : "VEC3"
        },
        {
            "bufferView" : 2,
            "componentType" : 5126,
            "count" : 2032,
            "type" : "VEC2"
        },
        {
            "bufferView" : 3,
            "componentType" : 5123,
            "count" : 6546,
            "type" : "SCALAR"
        }
    ],
    "bufferViews" : [
        {
            "buffer" : 0,
            "byteLength" : 24384,
            "byteOffset" : 0
        },
        {
            "buffer" : 0,
            "byteLength" : 24384,
            "byteOffset" : 24384
        },
        {
            "buffer" : 0,
            "byteLength" : 16256,
            "byteOffset" : 48768
        },
        {
            "buffer" : 0,
            "byteLength" : 13092,
            "byteOffset" : 65024
        }
    ],
    "buffers" : [
        {
            "byteLength" : 78116,
            "uri" : "data:application/octet-stream;base64,"
        }
    ]
}
