{
    "asset" : {
        "generator" : "Khronos glTF Blender I/O v3.2.40",
        "version" : "2.0"
    },
    "scene" : 0,
    "scenes" : [
        {
            "name" : "Scene",
            "nodes" : [
                0
            ]
        }
    ],
    "nodes" : [
        {
            "mesh" : 0,
            "name" : "Letters.024",
            "translation" : [
                0.0019395537674427032,
                -0.0012208521366119385,
                0.0006521046161651611
            ]
        }
    ],
    "materials" : [
        {
            "doubleSided" : true,
            "name" : "Green.002",
            "pbrMetallicRoughness" : {
                "baseColorFactor" : [
                    0.049706216901540756,
                    0.4232674539089203,
                    0.059511348605155945,
                    1
                ],
                "metallicFactor" : 0,
                "roughnessFactor" : 0.5
            }
        }
    ],
    "meshes" : [
        {
            "name" : "Text.034",
            "primitives" : [
                {
                    "attributes" : {
                        "POSITION" : 0,
                        "NORMAL" : 1,
                        "TEXCOORD_0" : 2
                    },
                    "indices" : 3,
                    "material" : 0
                }
            ]
        }
    ],
    "accessors" : [
        {
            "bufferView" : 0,
            "componentType" : 5126,
            "count" : 1876,
            "max" : [
                0.6268167495727539,
                0.7520586848258972,
                0.06791266798973083
            ],
            "min" : [
                -0.6196861267089844,
                -0.7384962439537048,
                -0.07385146617889404
            ],
            "type" : "VEC3"
        },
        {
            "bufferView" : 1,
            "componentType" : 5126,
            "count" : 1876,
            "type" : "VEC3"
        },
        {
            "bufferView" : 2,
            "componentType" : 5126,
            "count" : 1876,
            "type" : "VEC2"
        },
        {
            "bufferView" : 3,
            "componentType" : 5123,
            "count" : 5832,
            "type" : "SCALAR"
        }
    ],
    "bufferViews" : [
        {
            "buffer" : 0,
            "byteLength" : 22512,
            "byteOffset" : 0
        },
        {
            "buffer" : 0,
            "byteLength" : 22512,
            "byteOffset" : 22512
        },
        {
            "buffer" : 0,
            "byteLength" : 15008,
            "byteOffset" : 45024
        },
        {
            "buffer" : 0,
            "byteLength" : 11664,
            "byteOffset" : 60032
        }
    ],
    "buffers" : [
        {
            "byteLength" : 71696,
            "uri" : "data:application/octet-stream;base64,"
        }
    ]
}
