{
    "asset" : {
        "generator" : "Khronos glTF Blender I/O v3.2.40",
        "version" : "2.0"
    },
    "scene" : 0,
    "scenes" : [
        {
            "name" : "Scene",
            "nodes" : [
                0
            ]
        }
    ],
    "nodes" : [
        {
            "mesh" : 0,
            "name" : "Letters.010",
            "rotation" : [
                0.7071068286895752,
                0,
                0,
                0.7071068286895752
            ],
            "translation" : [
                0.003421916626393795,
                0.002182208001613617,
                -0.002623926615342498
            ]
        }
    ],
    "materials" : [
        {
            "doubleSided" : true,
            "name" : "Pink.001",
            "pbrMetallicRoughness" : {
                "baseColorFactor" : [
                    1,
                    0.31398826837539673,
                    0.40724027156829834,
                    1
                ],
                "metallicFactor" : 0,
                "roughnessFactor" : 0.5
            }
        }
    ],
    "meshes" : [
        {
            "name" : "Text.020",
            "primitives" : [
                {
                    "attributes" : {
                        "POSITION" : 0,
                        "NORMAL" : 1,
                        "TEXCOORD_0" : 2
                    },
                    "indices" : 3,
                    "material" : 0
                }
            ]
        }
    ],
    "accessors" : [
        {
            "bufferView" : 0,
            "componentType" : 5126,
            "count" : 2528,
            "max" : [
                0.617307186126709,
                0.0665043294429779,
                0.7978097200393677
            ],
            "min" : [
                -0.6291956901550293,
                -0.075259730219841,
                -0.6927451491355896
            ],
            "type" : "VEC3"
        },
        {
            "bufferView" : 1,
            "componentType" : 5126,
            "count" : 2528,
            "type" : "VEC3"
        },
        {
            "bufferView" : 2,
            "componentType" : 5126,
            "count" : 2528,
            "type" : "VEC2"
        },
        {
            "bufferView" : 3,
            "componentType" : 5123,
            "count" : 4416,
            "type" : "SCALAR"
        }
    ],
    "bufferViews" : [
        {
            "buffer" : 0,
            "byteLength" : 30336,
            "byteOffset" : 0
        },
        {
            "buffer" : 0,
            "byteLength" : 30336,
            "byteOffset" : 30336
        },
        {
            "buffer" : 0,
            "byteLength" : 20224,
            "byteOffset" : 60672
        },
        {
            "buffer" : 0,
            "byteLength" : 8832,
            "byteOffset" : 80896
        }
    ],
    "buffers" : [
        {
            "byteLength" : 89728,
            "uri" : "data:application/octet-stream;base64,"
        }
    ]
}
