{
    "asset" : {
        "generator" : "Khronos glTF Blender I/O v3.2.40",
        "version" : "2.0"
    },
    "scene" : 0,
    "scenes" : [
        {
            "name" : "Scene",
            "nodes" : [
                0
            ]
        }
    ],
    "nodes" : [
        {
            "mesh" : 0,
            "name" : "Letters.016",
            "translation" : [
                0.012220896780490875,
                0.002427399158477783,
                -0.003843754529953003
            ]
        }
    ],
    "materials" : [
        {
            "doubleSided" : true,
            "name" : "Red.001",
            "pbrMetallicRoughness" : {
                "baseColorFactor" : [
                    0.7681515216827393,
                    0.006511904764920473,
                    0.006512112449854612,
                    1
                ],
                "metallicFactor" : 0,
                "roughnessFactor" : 0.5
            }
        }
    ],
    "meshes" : [
        {
            "name" : "Text.026",
            "primitives" : [
                {
                    "attributes" : {
                        "POSITION" : 0,
                        "NORMAL" : 1,
                        "TEXCOORD_0" : 2
                    },
                    "indices" : 3,
                    "material" : 0
                }
            ]
        }
    ],
    "accessors" : [
        {
            "bufferView" : 0,
            "componentType" : 5126,
            "count" : 1960,
            "max" : [
                0.6218618154525757,
                0.7461717128753662,
                0.06981733441352844
            ],
            "min" : [
                -0.6246410608291626,
                -0.7443832159042358,
                -0.07194676995277405
            ],
            "type" : "VEC3"
        },
        {
            "bufferView" : 1,
            "componentType" : 5126,
            "count" : 1960,
            "type" : "VEC3"
        },
        {
            "bufferView" : 2,
            "componentType" : 5126,
            "count" : 1960,
            "type" : "VEC2"
        },
        {
            "bufferView" : 3,
            "componentType" : 5123,
            "count" : 6096,
            "type" : "SCALAR"
        }
    ],
    "bufferViews" : [
        {
            "buffer" : 0,
            "byteLength" : 23520,
            "byteOffset" : 0
        },
        {
            "buffer" : 0,
            "byteLength" : 23520,
            "byteOffset" : 23520
        },
        {
            "buffer" : 0,
            "byteLength" : 15680,
            "byteOffset" : 47040
        },
        {
            "buffer" : 0,
            "byteLength" : 12192,
            "byteOffset" : 62720
        }
    ],
    "buffers" : [
        {
            "byteLength" : 74912,
            "uri" : "data:application/octet-stream;base64,"
        }
    ]
}
