{
    "asset" : {
        "generator" : "Khronos glTF Blender I/O v3.2.40",
        "version" : "2.0"
    },
    "scene" : 0,
    "scenes" : [
        {
            "name" : "Scene",
            "nodes" : [
                0
            ]
        }
    ],
    "nodes" : [
        {
            "mesh" : 0,
            "name" : "Letters.009",
            "translation" : [
                0.001450567739084363,
                -0.0009431924554519355,
                0.003422468900680542
            ]
        }
    ],
    "materials" : [
        {
            "doubleSided" : true,
            "name" : "Green",
            "pbrMetallicRoughness" : {
                "baseColorFactor" : [
                    0.049706216901540756,
                    0.4232674539089203,
                    0.059511348605155945,
                    1
                ],
                "metallicFactor" : 0,
                "roughnessFactor" : 0.5
            }
        }
    ],
    "meshes" : [
        {
            "name" : "Text.018",
            "primitives" : [
                {
                    "attributes" : {
                        "POSITION" : 0,
                        "NORMAL" : 1,
                        "TEXCOORD_0" : 2
                    },
                    "indices" : 3,
                    "material" : 0
                }
            ]
        }
    ],
    "accessors" : [
        {
            "bufferView" : 0,
            "componentType" : 5126,
            "count" : 2360,
            "max" : [
                0.6073669791221619,
                0.7453168034553528,
                0.06730625033378601
            ],
            "min" : [
                -0.6391358971595764,
                -0.7452381253242493,
                -0.07445787638425827
            ],
            "type" : "VEC3"
        },
        {
            "bufferView" : 1,
            "componentType" : 5126,
            "count" : 2360,
            "type" : "VEC3"
        },
        {
            "bufferView" : 2,
            "componentType" : 5126,
            "count" : 2360,
            "type" : "VEC2"
        },
        {
            "bufferView" : 3,
            "componentType" : 5123,
            "count" : 10674,
            "type" : "SCALAR"
        }
    ],
    "bufferViews" : [
        {
            "buffer" : 0,
            "byteLength" : 28320,
            "byteOffset" : 0
        },
        {
            "buffer" : 0,
            "byteLength" : 28320,
            "byteOffset" : 28320
        },
        {
            "buffer" : 0,
            "byteLength" : 18880,
            "byteOffset" : 56640
        },
        {
            "buffer" : 0,
            "byteLength" : 21348,
            "byteOffset" : 75520
        }
    ],
    "buffers" : [
        {
            "byteLength" : 96868,
            "uri" : "data:application/octet-stream;base64,"
        }
    ]
}
