{
    "asset" : {
        "generator" : "Khronos glTF Blender I/O v3.2.40",
        "version" : "2.0"
    },
    "scene" : 0,
    "scenes" : [
        {
            "name" : "Scene",
            "nodes" : [
                0
            ]
        }
    ],
    "nodes" : [
        {
            "mesh" : 0,
            "name" : "Plane.047",
            "translation" : [
                0.005864784121513367,
                0.0028271377086639404,
                0.11078768968582153
            ]
        }
    ],
    "materials" : [
        {
            "doubleSided" : true,
            "name" : "Yellow",
            "pbrMetallicRoughness" : {
                "baseColorFactor" : [
                    1,
                    0.7304604649543762,
                    0,
                    1
                ],
                "metallicFactor" : 0,
                "roughnessFactor" : 0.5
            }
        }
    ],
    "meshes" : [
        {
            "name" : "Plane.061",
            "primitives" : [
                {
                    "attributes" : {
                        "POSITION" : 0,
                        "NORMAL" : 1,
                        "TEXCOORD_0" : 2
                    },
                    "indices" : 3,
                    "material" : 0
                }
            ]
        }
    ],
    "accessors" : [
        {
            "bufferView" : 0,
            "componentType" : 5126,
            "count" : 2100,
            "max" : [
                0.5830986499786377,
                0.6971312165260315,
                0.027244359254837036
            ],
            "min" : [
                -0.6634042263031006,
                -0.7934237122535706,
                -0.11451977491378784
            ],
            "type" : "VEC3"
        },
        {
            "bufferView" : 1,
            "componentType" : 5126,
            "count" : 2100,
            "type" : "VEC3"
        },
        {
            "bufferView" : 2,
            "componentType" : 5126,
            "count" : 2100,
            "type" : "VEC2"
        },
        {
            "bufferView" : 3,
            "componentType" : 5123,
            "count" : 6780,
            "type" : "SCALAR"
        }
    ],
    "bufferViews" : [
        {
            "buffer" : 0,
            "byteLength" : 25200,
            "byteOffset" : 0
        },
        {
            "buffer" : 0,
            "byteLength" : 25200,
            "byteOffset" : 25200
        },
        {
            "buffer" : 0,
            "byteLength" : 16800,
            "byteOffset" : 50400
        },
        {
            "buffer" : 0,
            "byteLength" : 13560,
            "byteOffset" : 67200
        }
    ],
    "buffers" : [
        {
            "byteLength" : 80760,
            "uri" : "data:application/octet-stream;base64,"
        }
    ]
}
