{
    "asset" : {
        "generator" : "Khronos glTF Blender I/O v3.2.40",
        "version" : "2.0"
    },
    "scene" : 0,
    "scenes" : [
        {
            "name" : "Scene",
            "nodes" : [
                0
            ]
        }
    ],
    "nodes" : [
        {
            "mesh" : 0,
            "name" : "Letters.002",
            "rotation" : [
                0.7071068286895752,
                0,
                0,
                0.7071068286895752
            ],
            "translation" : [
                0.0015786043368279934,
                0.16804508864879608,
                -0.001402776688337326
            ]
        }
    ],
    "materials" : [
        {
            "doubleSided" : true,
            "name" : "Orange",
            "pbrMetallicRoughness" : {
                "baseColorFactor" : [
                    0.991101861000061,
                    0.3762618601322174,
                    0,
                    1
                ],
                "metallicFactor" : 0,
                "roughnessFactor" : 0.5
            }
        }
    ],
    "meshes" : [
        {
            "name" : "Text.011",
            "primitives" : [
                {
                    "attributes" : {
                        "POSITION" : 0,
                        "NORMAL" : 1,
                        "TEXCOORD_0" : 2
                    },
                    "indices" : 3,
                    "material" : 0
                }
            ]
        }
    ],
    "accessors" : [
        {
            "bufferView" : 0,
            "componentType" : 5126,
            "count" : 4143,
            "max" : [
                0.618340253829956,
                0.08567775785923004,
                0.7300913333892822
            ],
            "min" : [
                -0.6281626224517822,
                -0.08244957774877548,
                -0.7604634761810303
            ],
            "type" : "VEC3"
        },
        {
            "bufferView" : 1,
            "componentType" : 5126,
            "count" : 4143,
            "type" : "VEC3"
        },
        {
            "bufferView" : 2,
            "componentType" : 5126,
            "count" : 4143,
            "type" : "VEC2"
        },
        {
            "bufferView" : 3,
            "componentType" : 5123,
            "count" : 7344,
            "type" : "SCALAR"
        }
    ],
    "bufferViews" : [
        {
            "buffer" : 0,
            "byteLength" : 49716,
            "byteOffset" : 0
        },
        {
            "buffer" : 0,
            "byteLength" : 49716,
            "byteOffset" : 49716
        },
        {
            "buffer" : 0,
            "byteLength" : 33144,
            "byteOffset" : 99432
        },
        {
            "buffer" : 0,
            "byteLength" : 14688,
            "byteOffset" : 132576
        }
    ],
    "buffers" : [
        {
            "byteLength" : 147264,
            "uri" : "data:application/octet-stream;base64,"
        }
    ]
}
