{
    "asset" : {
        "generator" : "Khronos glTF Blender I/O v3.2.40",
        "version" : "2.0"
    },
    "scene" : 0,
    "scenes" : [
        {
            "name" : "Scene",
            "nodes" : [
                0
            ]
        }
    ],
    "nodes" : [
        {
            "mesh" : 0,
            "name" : "Letters.025",
            "translation" : [
                -0.0007267985492944717,
                0.0076361000537872314,
                0.016947194933891296
            ]
        }
    ],
    "materials" : [
        {
            "doubleSided" : true,
            "name" : "Pink.004",
            "pbrMetallicRoughness" : {
                "baseColorFactor" : [
                    1,
                    0.31398826837539673,
                    0.40724027156829834,
                    1
                ],
                "metallicFactor" : 0,
                "roughnessFactor" : 0.5
            }
        }
    ],
    "meshes" : [
        {
            "name" : "Text.035",
            "primitives" : [
                {
                    "attributes" : {
                        "POSITION" : 0,
                        "NORMAL" : 1,
                        "TEXCOORD_0" : 2
                    },
                    "indices" : 3,
                    "material" : 0
                }
            ]
        }
    ],
    "accessors" : [
        {
            "bufferView" : 0,
            "componentType" : 5126,
            "count" : 2516,
            "max" : [
                0.5972095131874084,
                0.7749962210655212,
                0.02514214813709259
            ],
            "min" : [
                -0.6492924094200134,
                -0.7155587077140808,
                -0.11662198603153229
            ],
            "type" : "VEC3"
        },
        {
            "bufferView" : 1,
            "componentType" : 5126,
            "count" : 2516,
            "type" : "VEC3"
        },
        {
            "bufferView" : 2,
            "componentType" : 5126,
            "count" : 2516,
            "type" : "VEC2"
        },
        {
            "bufferView" : 3,
            "componentType" : 5123,
            "count" : 7752,
            "type" : "SCALAR"
        }
    ],
    "bufferViews" : [
        {
            "buffer" : 0,
            "byteLength" : 30192,
            "byteOffset" : 0
        },
        {
            "buffer" : 0,
            "byteLength" : 30192,
            "byteOffset" : 30192
        },
        {
            "buffer" : 0,
            "byteLength" : 20128,
            "byteOffset" : 60384
        },
        {
            "buffer" : 0,
            "byteLength" : 15504,
            "byteOffset" : 80512
        }
    ],
    "buffers" : [
        {
            "byteLength" : 96016,
            "uri" : "data:application/octet-stream;base64,"
        }
    ]
}
